<?xml version="1.0" encoding="utf-8"?>
<!-- Generator: Adobe Illustrator 27.3.1, SVG Export Plug-In . SVG Version: 6.00 Build 0)  -->
<svg version="1.1" id="Layer_1" xmlns="http://www.w3.org/2000/svg" xmlns:xlink="http://www.w3.org/1999/xlink" x="0px" y="0px"
	 viewBox="0 0 100 100" style="enable-background:new 0 0 100 100;" xml:space="preserve">
<style type="text/css">
	.st0{opacity:0.15;}
	.st1{fill:#257878;}
</style>
<g class="st0">
	<g>
		<g>
			<path class="st1" d="M0.05,91.79c-0.06,0.13-0.06,0.29,0,0.42l3.5,7.5c0.12,0.25,0.41,0.36,0.66,0.24
				c0.11-0.05,0.21-0.15,0.25-0.27l3-7.5c0.05-0.12,0.05-0.25,0-0.37L5.14,86H11c0,0.55,0.45,1,1,1h2v-3h-2c-0.55,0-1,0.45-1,1H4.74
				l-0.28-0.69c-0.1-0.26-0.39-0.38-0.65-0.28c-0.12,0.05-0.21,0.14-0.27,0.25C3.55,84.29,0.05,91.79,0.05,91.79z M6.46,92
				l-2.49,6.24L1.05,92l2.91-6.24L6.46,92z"/>
			<path class="st1" d="M7.03,95.82c-0.1,0.26,0.03,0.55,0.29,0.64c0.01,0,0.02,0.01,0.04,0.01l1.7,0.5
				c0.25,0.07,0.51-0.05,0.61-0.29l1.8-4.5c0.05-0.12,0.05-0.25,0-0.37l-1.8-4.5c-0.1-0.24-0.36-0.37-0.6-0.29l-1.7,0.5
				c-0.26,0.08-0.42,0.36-0.34,0.62c0,0.01,0.01,0.02,0.01,0.04L8.47,92L7.03,95.82z M8.9,95.89l-0.75-0.22l1.31-3.5
				c0.04-0.11,0.04-0.24,0-0.35l-1.31-3.5l0.75-0.22L10.46,92L8.9,95.89L8.9,95.89z"/>
		</g>
		<g>
			<path class="st1" d="M0.05,66.79c-0.06,0.13-0.06,0.29,0,0.42l3.5,7.5c0.12,0.25,0.41,0.36,0.66,0.24
				c0.11-0.05,0.21-0.15,0.25-0.27l3-7.5c0.05-0.12,0.05-0.25,0-0.37L5.14,61H11c0,0.55,0.45,1,1,1h2v-3h-2c-0.55,0-1,0.45-1,1H4.74
				l-0.28-0.69c-0.1-0.26-0.39-0.38-0.65-0.28c-0.12,0.05-0.21,0.14-0.27,0.25C3.55,59.29,0.05,66.79,0.05,66.79z M6.46,67
				l-2.49,6.24L1.05,67l2.91-6.24L6.46,67z"/>
			<path class="st1" d="M7.03,70.82c-0.1,0.26,0.03,0.55,0.29,0.64c0.01,0,0.02,0.01,0.04,0.01l1.7,0.5
				c0.25,0.07,0.51-0.05,0.61-0.29l1.8-4.5c0.05-0.12,0.05-0.25,0-0.37l-1.8-4.5c-0.1-0.24-0.36-0.37-0.6-0.29l-1.7,0.5
				c-0.26,0.08-0.42,0.36-0.34,0.62c0,0.01,0.01,0.02,0.01,0.04L8.47,67L7.03,70.82z M8.9,70.89l-0.75-0.22l1.31-3.5
				c0.04-0.11,0.04-0.24,0-0.35l-1.31-3.5l0.75-0.22L10.46,67L8.9,70.89L8.9,70.89z"/>
		</g>
		<g>
			<path class="st1" d="M0.05,41.79c-0.06,0.13-0.06,0.29,0,0.42l3.5,7.5c0.12,0.25,0.41,0.36,0.66,0.24
				c0.11-0.05,0.21-0.15,0.25-0.27l3-7.5c0.05-0.12,0.05-0.25,0-0.37L5.14,36H11c0,0.55,0.45,1,1,1h2v-3h-2c-0.55,0-1,0.45-1,1H4.74
				l-0.28-0.69c-0.1-0.26-0.39-0.38-0.65-0.28c-0.12,0.05-0.21,0.14-0.27,0.25C3.55,34.29,0.05,41.79,0.05,41.79z M6.46,42
				l-2.49,6.24L1.05,42l2.91-6.24L6.46,42z"/>
			<path class="st1" d="M7.03,45.82c-0.1,0.26,0.03,0.55,0.29,0.64c0.01,0,0.02,0.01,0.04,0.01l1.7,0.5
				c0.25,0.07,0.51-0.05,0.61-0.29l1.8-4.5c0.05-0.12,0.05-0.25,0-0.37l-1.8-4.5c-0.1-0.24-0.36-0.37-0.6-0.29l-1.7,0.5
				c-0.26,0.08-0.42,0.36-0.34,0.62c0,0.01,0.01,0.02,0.01,0.04L8.47,42L7.03,45.82z M8.9,45.89l-0.75-0.22l1.31-3.5
				c0.04-0.11,0.04-0.24,0-0.35l-1.31-3.5l0.75-0.22L10.46,42L8.9,45.89L8.9,45.89z"/>
		</g>
		<g>
			<path class="st1" d="M0.05,16.79c-0.06,0.13-0.06,0.29,0,0.42l3.5,7.5c0.12,0.25,0.41,0.36,0.66,0.24
				c0.11-0.05,0.21-0.15,0.25-0.27l3-7.5c0.05-0.12,0.05-0.25,0-0.37L5.14,11H11c0,0.55,0.45,1,1,1h2V9h-2c-0.55,0-1,0.45-1,1H4.74
				L4.46,9.31c-0.1-0.26-0.39-0.38-0.65-0.28C3.7,9.08,3.6,9.17,3.55,9.29C3.55,9.29,0.05,16.79,0.05,16.79z M6.46,17l-2.49,6.24
				L1.05,17l2.91-6.24L6.46,17z"/>
			<path class="st1" d="M7.03,20.82c-0.1,0.26,0.03,0.55,0.29,0.64c0.01,0,0.02,0.01,0.04,0.01l1.7,0.5
				c0.25,0.07,0.51-0.05,0.61-0.29l1.8-4.5c0.05-0.12,0.05-0.25,0-0.37l-1.8-4.5c-0.1-0.24-0.36-0.37-0.6-0.29l-1.7,0.5
				c-0.26,0.08-0.42,0.36-0.34,0.62c0,0.01,0.01,0.02,0.01,0.04L8.47,17L7.03,20.82z M8.9,20.89l-0.75-0.22l1.31-3.5
				c0.04-0.11,0.04-0.24,0-0.35l-1.31-3.5l0.75-0.22L10.46,17L8.9,20.89L8.9,20.89z"/>
		</g>
	</g>
	<g>
		<g>
			<path class="st1" d="M20.05,91.79c-0.06,0.13-0.06,0.29,0,0.42l3.5,7.5c0.12,0.25,0.41,0.36,0.66,0.24
				c0.11-0.05,0.21-0.15,0.25-0.27l3-7.5c0.05-0.12,0.05-0.25,0-0.37L25.14,86H31c0,0.55,0.45,1,1,1h2v-3h-2c-0.55,0-1,0.45-1,1
				h-6.26l-0.28-0.69c-0.1-0.26-0.39-0.38-0.65-0.28c-0.12,0.05-0.21,0.14-0.27,0.25C23.55,84.29,20.05,91.79,20.05,91.79z
				 M26.46,92l-2.49,6.24L21.05,92l2.91-6.24L26.46,92z"/>
			<path class="st1" d="M27.03,95.82c-0.1,0.26,0.03,0.55,0.29,0.64c0.01,0,0.02,0.01,0.04,0.01l1.7,0.5
				c0.25,0.07,0.51-0.05,0.61-0.29l1.8-4.5c0.05-0.12,0.05-0.25,0-0.37l-1.8-4.5c-0.1-0.24-0.36-0.37-0.6-0.29l-1.7,0.5
				c-0.26,0.08-0.42,0.36-0.34,0.62c0,0.01,0.01,0.02,0.01,0.04L28.47,92L27.03,95.82z M28.9,95.89l-0.75-0.22l1.31-3.5
				c0.04-0.11,0.04-0.24,0-0.35l-1.31-3.5l0.75-0.22L30.46,92L28.9,95.89L28.9,95.89z"/>
		</g>
		<g>
			<path class="st1" d="M20.05,66.79c-0.06,0.13-0.06,0.29,0,0.42l3.5,7.5c0.12,0.25,0.41,0.36,0.66,0.24
				c0.11-0.05,0.21-0.15,0.25-0.27l3-7.5c0.05-0.12,0.05-0.25,0-0.37L25.14,61H31c0,0.55,0.45,1,1,1h2v-3h-2c-0.55,0-1,0.45-1,1
				h-6.26l-0.28-0.69c-0.1-0.26-0.39-0.38-0.65-0.28c-0.12,0.05-0.21,0.14-0.27,0.25C23.55,59.29,20.05,66.79,20.05,66.79z
				 M26.46,67l-2.49,6.24L21.05,67l2.91-6.24L26.46,67z"/>
			<path class="st1" d="M27.03,70.82c-0.1,0.26,0.03,0.55,0.29,0.64c0.01,0,0.02,0.01,0.04,0.01l1.7,0.5
				c0.25,0.07,0.51-0.05,0.61-0.29l1.8-4.5c0.05-0.12,0.05-0.25,0-0.37l-1.8-4.5c-0.1-0.24-0.36-0.37-0.6-0.29l-1.7,0.5
				c-0.26,0.08-0.42,0.36-0.34,0.62c0,0.01,0.01,0.02,0.01,0.04L28.47,67L27.03,70.82z M28.9,70.89l-0.75-0.22l1.31-3.5
				c0.04-0.11,0.04-0.24,0-0.35l-1.31-3.5l0.75-0.22L30.46,67L28.9,70.89L28.9,70.89z"/>
		</g>
		<g>
			<path class="st1" d="M20.05,41.79c-0.06,0.13-0.06,0.29,0,0.42l3.5,7.5c0.12,0.25,0.41,0.36,0.66,0.24
				c0.11-0.05,0.21-0.15,0.25-0.27l3-7.5c0.05-0.12,0.05-0.25,0-0.37L25.14,36H31c0,0.55,0.45,1,1,1h2v-3h-2c-0.55,0-1,0.45-1,1
				h-6.26l-0.28-0.69c-0.1-0.26-0.39-0.38-0.65-0.28c-0.12,0.05-0.21,0.14-0.27,0.25C23.55,34.29,20.05,41.79,20.05,41.79z
				 M26.46,42l-2.49,6.24L21.05,42l2.91-6.24L26.46,42z"/>
			<path class="st1" d="M27.03,45.82c-0.1,0.26,0.03,0.55,0.29,0.64c0.01,0,0.02,0.01,0.04,0.01l1.7,0.5
				c0.25,0.07,0.51-0.05,0.61-0.29l1.8-4.5c0.05-0.12,0.05-0.25,0-0.37l-1.8-4.5c-0.1-0.24-0.36-0.37-0.6-0.29l-1.7,0.5
				c-0.26,0.08-0.42,0.36-0.34,0.62c0,0.01,0.01,0.02,0.01,0.04L28.47,42L27.03,45.82z M28.9,45.89l-0.75-0.22l1.31-3.5
				c0.04-0.11,0.04-0.24,0-0.35l-1.31-3.5l0.75-0.22L30.46,42L28.9,45.89L28.9,45.89z"/>
		</g>
		<g>
			<path class="st1" d="M20.05,16.79c-0.06,0.13-0.06,0.29,0,0.42l3.5,7.5c0.12,0.25,0.41,0.36,0.66,0.24
				c0.11-0.05,0.21-0.15,0.25-0.27l3-7.5c0.05-0.12,0.05-0.25,0-0.37L25.14,11H31c0,0.55,0.45,1,1,1h2V9h-2c-0.55,0-1,0.45-1,1
				h-6.26l-0.28-0.69c-0.1-0.26-0.39-0.38-0.65-0.28c-0.12,0.05-0.21,0.14-0.27,0.25C23.55,9.29,20.05,16.79,20.05,16.79z M26.46,17
				l-2.49,6.24L21.05,17l2.91-6.24L26.46,17z"/>
			<path class="st1" d="M27.03,20.82c-0.1,0.26,0.03,0.55,0.29,0.64c0.01,0,0.02,0.01,0.04,0.01l1.7,0.5
				c0.25,0.07,0.51-0.05,0.61-0.29l1.8-4.5c0.05-0.12,0.05-0.25,0-0.37l-1.8-4.5c-0.1-0.24-0.36-0.37-0.6-0.29l-1.7,0.5
				c-0.26,0.08-0.42,0.36-0.34,0.62c0,0.01,0.01,0.02,0.01,0.04L28.47,17L27.03,20.82z M28.9,20.89l-0.75-0.22l1.31-3.5
				c0.04-0.11,0.04-0.24,0-0.35l-1.31-3.5l0.75-0.22L30.46,17L28.9,20.89L28.9,20.89z"/>
		</g>
	</g>
	<g>
		<g>
			<path class="st1" d="M40.05,91.79c-0.06,0.13-0.06,0.29,0,0.42l3.5,7.5c0.12,0.25,0.41,0.36,0.66,0.24
				c0.11-0.05,0.21-0.15,0.25-0.27l3-7.5c0.05-0.12,0.05-0.25,0-0.37L45.14,86H51c0,0.55,0.45,1,1,1h2v-3h-2c-0.55,0-1,0.45-1,1
				h-6.26l-0.27-0.69c-0.1-0.26-0.39-0.38-0.65-0.28c-0.12,0.05-0.21,0.14-0.27,0.25C43.55,84.29,40.05,91.79,40.05,91.79z
				 M46.46,92l-2.49,6.24L41.05,92l2.91-6.24L46.46,92z"/>
			<path class="st1" d="M47.03,95.82c-0.1,0.26,0.03,0.55,0.29,0.64c0.01,0,0.02,0.01,0.04,0.01l1.7,0.5
				c0.25,0.07,0.51-0.05,0.6-0.29l1.8-4.5c0.05-0.12,0.05-0.25,0-0.37l-1.8-4.5c-0.1-0.24-0.36-0.37-0.6-0.29l-1.7,0.5
				c-0.26,0.08-0.42,0.36-0.34,0.62c0,0.01,0.01,0.02,0.01,0.04L48.47,92L47.03,95.82z M48.9,95.89l-0.75-0.22l1.31-3.5
				c0.04-0.11,0.04-0.24,0-0.35l-1.31-3.5l0.75-0.22L50.46,92L48.9,95.89L48.9,95.89z"/>
		</g>
		<g>
			<path class="st1" d="M40.05,66.79c-0.06,0.13-0.06,0.29,0,0.42l3.5,7.5c0.12,0.25,0.41,0.36,0.66,0.24
				c0.11-0.05,0.21-0.15,0.25-0.27l3-7.5c0.05-0.12,0.05-0.25,0-0.37L45.14,61H51c0,0.55,0.45,1,1,1h2v-3h-2c-0.55,0-1,0.45-1,1
				h-6.26l-0.27-0.69c-0.1-0.26-0.39-0.38-0.65-0.28c-0.12,0.05-0.21,0.14-0.27,0.25C43.55,59.29,40.05,66.79,40.05,66.79z
				 M46.46,67l-2.49,6.24L41.05,67l2.91-6.24L46.46,67z"/>
			<path class="st1" d="M47.03,70.82c-0.1,0.26,0.03,0.55,0.29,0.64c0.01,0,0.02,0.01,0.04,0.01l1.7,0.5
				c0.25,0.07,0.51-0.05,0.6-0.29l1.8-4.5c0.05-0.12,0.05-0.25,0-0.37l-1.8-4.5c-0.1-0.24-0.36-0.37-0.6-0.29l-1.7,0.5
				c-0.26,0.08-0.42,0.36-0.34,0.62c0,0.01,0.01,0.02,0.01,0.04L48.47,67L47.03,70.82z M48.9,70.89l-0.75-0.22l1.31-3.5
				c0.04-0.11,0.04-0.24,0-0.35l-1.31-3.5l0.75-0.22L50.46,67L48.9,70.89L48.9,70.89z"/>
		</g>
		<g>
			<path class="st1" d="M40.05,41.79c-0.06,0.13-0.06,0.29,0,0.42l3.5,7.5c0.12,0.25,0.41,0.36,0.66,0.24
				c0.11-0.05,0.21-0.15,0.25-0.27l3-7.5c0.05-0.12,0.05-0.25,0-0.37L45.14,36H51c0,0.55,0.45,1,1,1h2v-3h-2c-0.55,0-1,0.45-1,1
				h-6.26l-0.27-0.69c-0.1-0.26-0.39-0.38-0.65-0.28c-0.12,0.05-0.21,0.14-0.27,0.25C43.55,34.29,40.05,41.79,40.05,41.79z
				 M46.46,42l-2.49,6.24L41.05,42l2.91-6.24L46.46,42z"/>
			<path class="st1" d="M47.03,45.82c-0.1,0.26,0.03,0.55,0.29,0.64c0.01,0,0.02,0.01,0.04,0.01l1.7,0.5
				c0.25,0.07,0.51-0.05,0.6-0.29l1.8-4.5c0.05-0.12,0.05-0.25,0-0.37l-1.8-4.5c-0.1-0.24-0.36-0.37-0.6-0.29l-1.7,0.5
				c-0.26,0.08-0.42,0.36-0.34,0.62c0,0.01,0.01,0.02,0.01,0.04L48.47,42L47.03,45.82z M48.9,45.89l-0.75-0.22l1.31-3.5
				c0.04-0.11,0.04-0.24,0-0.35l-1.31-3.5l0.75-0.22L50.46,42L48.9,45.89L48.9,45.89z"/>
		</g>
		<g>
			<path class="st1" d="M40.05,16.79c-0.06,0.13-0.06,0.29,0,0.42l3.5,7.5c0.12,0.25,0.41,0.36,0.66,0.24
				c0.11-0.05,0.21-0.15,0.25-0.27l3-7.5c0.05-0.12,0.05-0.25,0-0.37L45.14,11H51c0,0.55,0.45,1,1,1h2V9h-2c-0.55,0-1,0.45-1,1
				h-6.26l-0.27-0.69c-0.1-0.26-0.39-0.38-0.65-0.28c-0.12,0.05-0.21,0.14-0.27,0.25C43.55,9.29,40.05,16.79,40.05,16.79z M46.46,17
				l-2.49,6.24L41.05,17l2.91-6.24L46.46,17z"/>
			<path class="st1" d="M47.03,20.82c-0.1,0.26,0.03,0.55,0.29,0.64c0.01,0,0.02,0.01,0.04,0.01l1.7,0.5
				c0.25,0.07,0.51-0.05,0.6-0.29l1.8-4.5c0.05-0.12,0.05-0.25,0-0.37l-1.8-4.5c-0.1-0.24-0.36-0.37-0.6-0.29l-1.7,0.5
				c-0.26,0.08-0.42,0.36-0.34,0.62c0,0.01,0.01,0.02,0.01,0.04L48.47,17L47.03,20.82z M48.9,20.89l-0.75-0.22l1.31-3.5
				c0.04-0.11,0.04-0.24,0-0.35l-1.31-3.5l0.75-0.22L50.46,17L48.9,20.89L48.9,20.89z"/>
		</g>
	</g>
	<g>
		<g>
			<path class="st1" d="M60.05,91.79c-0.06,0.13-0.06,0.29,0,0.42l3.5,7.5c0.12,0.25,0.41,0.36,0.66,0.24
				c0.11-0.05,0.21-0.15,0.25-0.27l3-7.5c0.05-0.12,0.05-0.25,0-0.37L65.14,86H71c0,0.55,0.45,1,1,1h2v-3h-2c-0.55,0-1,0.45-1,1
				h-6.26l-0.28-0.69c-0.1-0.26-0.39-0.38-0.65-0.28c-0.12,0.05-0.21,0.14-0.27,0.25C63.55,84.29,60.05,91.79,60.05,91.79z
				 M66.46,92l-2.49,6.24L61.05,92l2.91-6.24L66.46,92z"/>
			<path class="st1" d="M67.03,95.82c-0.1,0.26,0.03,0.55,0.29,0.64c0.01,0,0.02,0.01,0.04,0.01l1.7,0.5
				c0.25,0.07,0.51-0.05,0.61-0.29l1.8-4.5c0.05-0.12,0.05-0.25,0-0.37l-1.8-4.5c-0.1-0.24-0.36-0.37-0.61-0.29l-1.7,0.5
				c-0.26,0.08-0.42,0.36-0.34,0.62c0,0.01,0.01,0.02,0.01,0.04L68.47,92L67.03,95.82z M68.9,95.89l-0.75-0.22l1.31-3.5
				c0.04-0.11,0.04-0.24,0-0.35l-1.31-3.5l0.75-0.22L70.46,92L68.9,95.89L68.9,95.89z"/>
		</g>
		<g>
			<path class="st1" d="M60.05,66.79c-0.06,0.13-0.06,0.29,0,0.42l3.5,7.5c0.12,0.25,0.41,0.36,0.66,0.24
				c0.11-0.05,0.21-0.15,0.25-0.27l3-7.5c0.05-0.12,0.05-0.25,0-0.37L65.14,61H71c0,0.55,0.45,1,1,1h2v-3h-2c-0.55,0-1,0.45-1,1
				h-6.26l-0.28-0.69c-0.1-0.26-0.39-0.38-0.65-0.28c-0.12,0.05-0.21,0.14-0.27,0.25C63.55,59.29,60.05,66.79,60.05,66.79z
				 M66.46,67l-2.49,6.24L61.05,67l2.91-6.24L66.46,67z"/>
			<path class="st1" d="M67.03,70.82c-0.1,0.26,0.03,0.55,0.29,0.64c0.01,0,0.02,0.01,0.04,0.01l1.7,0.5
				c0.25,0.07,0.51-0.05,0.61-0.29l1.8-4.5c0.05-0.12,0.05-0.25,0-0.37l-1.8-4.5c-0.1-0.24-0.36-0.37-0.61-0.29l-1.7,0.5
				c-0.26,0.08-0.42,0.36-0.34,0.62c0,0.01,0.01,0.02,0.01,0.04L68.47,67L67.03,70.82z M68.9,70.89l-0.75-0.22l1.31-3.5
				c0.04-0.11,0.04-0.24,0-0.35l-1.31-3.5l0.75-0.22L70.46,67L68.9,70.89L68.9,70.89z"/>
		</g>
		<g>
			<path class="st1" d="M60.05,41.79c-0.06,0.13-0.06,0.29,0,0.42l3.5,7.5c0.12,0.25,0.41,0.36,0.66,0.24
				c0.11-0.05,0.21-0.15,0.25-0.27l3-7.5c0.05-0.12,0.05-0.25,0-0.37L65.14,36H71c0,0.55,0.45,1,1,1h2v-3h-2c-0.55,0-1,0.45-1,1
				h-6.26l-0.28-0.69c-0.1-0.26-0.39-0.38-0.65-0.28c-0.12,0.05-0.21,0.14-0.27,0.25C63.55,34.29,60.05,41.79,60.05,41.79z
				 M66.46,42l-2.49,6.24L61.05,42l2.91-6.24L66.46,42z"/>
			<path class="st1" d="M67.03,45.82c-0.1,0.26,0.03,0.55,0.29,0.64c0.01,0,0.02,0.01,0.04,0.01l1.7,0.5
				c0.25,0.07,0.51-0.05,0.61-0.29l1.8-4.5c0.05-0.12,0.05-0.25,0-0.37l-1.8-4.5c-0.1-0.24-0.36-0.37-0.61-0.29l-1.7,0.5
				c-0.26,0.08-0.42,0.36-0.34,0.62c0,0.01,0.01,0.02,0.01,0.04L68.47,42L67.03,45.82z M68.9,45.89l-0.75-0.22l1.31-3.5
				c0.04-0.11,0.04-0.24,0-0.35l-1.31-3.5l0.75-0.22L70.46,42L68.9,45.89L68.9,45.89z"/>
		</g>
		<g>
			<path class="st1" d="M60.05,16.79c-0.06,0.13-0.06,0.29,0,0.42l3.5,7.5c0.12,0.25,0.41,0.36,0.66,0.24
				c0.11-0.05,0.21-0.15,0.25-0.27l3-7.5c0.05-0.12,0.05-0.25,0-0.37L65.14,11H71c0,0.55,0.45,1,1,1h2V9h-2c-0.55,0-1,0.45-1,1
				h-6.26l-0.28-0.69c-0.1-0.26-0.39-0.38-0.65-0.28c-0.12,0.05-0.21,0.14-0.27,0.25C63.55,9.29,60.05,16.79,60.05,16.79z M66.46,17
				l-2.49,6.24L61.05,17l2.91-6.24L66.46,17z"/>
			<path class="st1" d="M67.03,20.82c-0.1,0.26,0.03,0.55,0.29,0.64c0.01,0,0.02,0.01,0.04,0.01l1.7,0.5
				c0.25,0.07,0.51-0.05,0.61-0.29l1.8-4.5c0.05-0.12,0.05-0.25,0-0.37l-1.8-4.5c-0.1-0.24-0.36-0.37-0.61-0.29l-1.7,0.5
				c-0.26,0.08-0.42,0.36-0.34,0.62c0,0.01,0.01,0.02,0.01,0.04L68.47,17L67.03,20.82z M68.9,20.89l-0.75-0.22l1.31-3.5
				c0.04-0.11,0.04-0.24,0-0.35l-1.31-3.5l0.75-0.22L70.46,17L68.9,20.89L68.9,20.89z"/>
		</g>
	</g>
	<g>
		<g>
			<path class="st1" d="M80.05,91.79c-0.06,0.13-0.06,0.29,0,0.42l3.5,7.5c0.12,0.25,0.41,0.36,0.66,0.24
				c0.11-0.05,0.21-0.15,0.25-0.27l3-7.5c0.05-0.12,0.05-0.25,0-0.37L85.14,86H91c0,0.55,0.45,1,1,1h2v-3h-2c-0.55,0-1,0.45-1,1
				h-6.26l-0.28-0.69c-0.1-0.26-0.39-0.38-0.65-0.28c-0.12,0.05-0.21,0.14-0.27,0.25C83.55,84.29,80.05,91.79,80.05,91.79z
				 M86.46,92l-2.5,6.24L81.05,92l2.91-6.24L86.46,92z"/>
			<path class="st1" d="M87.03,95.82c-0.1,0.26,0.03,0.55,0.29,0.64c0.01,0,0.02,0.01,0.04,0.01l1.7,0.5
				c0.25,0.07,0.51-0.05,0.61-0.29l1.8-4.5c0.05-0.12,0.05-0.25,0-0.37l-1.8-4.5c-0.1-0.24-0.36-0.37-0.61-0.29l-1.7,0.5
				c-0.26,0.08-0.42,0.36-0.34,0.62c0,0.01,0.01,0.02,0.01,0.04L88.47,92L87.03,95.82z M88.9,95.89l-0.75-0.22l1.31-3.5
				c0.04-0.11,0.04-0.24,0-0.35l-1.31-3.5l0.75-0.22L90.46,92L88.9,95.89L88.9,95.89z"/>
		</g>
		<g>
			<path class="st1" d="M80.05,66.79c-0.06,0.13-0.06,0.29,0,0.42l3.5,7.5c0.12,0.25,0.41,0.36,0.66,0.24
				c0.11-0.05,0.21-0.15,0.25-0.27l3-7.5c0.05-0.12,0.05-0.25,0-0.37L85.14,61H91c0,0.55,0.45,1,1,1h2v-3h-2c-0.55,0-1,0.45-1,1
				h-6.26l-0.28-0.69c-0.1-0.26-0.39-0.38-0.65-0.28c-0.12,0.05-0.21,0.14-0.27,0.25C83.55,59.29,80.05,66.79,80.05,66.79z
				 M86.46,67l-2.5,6.24L81.05,67l2.91-6.24L86.46,67z"/>
			<path class="st1" d="M87.03,70.82c-0.1,0.26,0.03,0.55,0.29,0.64c0.01,0,0.02,0.01,0.04,0.01l1.7,0.5
				c0.25,0.07,0.51-0.05,0.61-0.29l1.8-4.5c0.05-0.12,0.05-0.25,0-0.37l-1.8-4.5c-0.1-0.24-0.36-0.37-0.61-0.29l-1.7,0.5
				c-0.26,0.08-0.42,0.36-0.34,0.62c0,0.01,0.01,0.02,0.01,0.04L88.47,67L87.03,70.82z M88.9,70.89l-0.75-0.22l1.31-3.5
				c0.04-0.11,0.04-0.24,0-0.35l-1.31-3.5l0.75-0.22L90.46,67L88.9,70.89L88.9,70.89z"/>
		</g>
		<g>
			<path class="st1" d="M80.05,41.79c-0.06,0.13-0.06,0.29,0,0.42l3.5,7.5c0.12,0.25,0.41,0.36,0.66,0.24
				c0.11-0.05,0.21-0.15,0.25-0.27l3-7.5c0.05-0.12,0.05-0.25,0-0.37L85.14,36H91c0,0.55,0.45,1,1,1h2v-3h-2c-0.55,0-1,0.45-1,1
				h-6.26l-0.28-0.69c-0.1-0.26-0.39-0.38-0.65-0.28c-0.12,0.05-0.21,0.14-0.27,0.25C83.55,34.29,80.05,41.79,80.05,41.79z
				 M86.46,42l-2.5,6.24L81.05,42l2.91-6.24L86.46,42z"/>
			<path class="st1" d="M87.03,45.82c-0.1,0.26,0.03,0.55,0.29,0.64c0.01,0,0.02,0.01,0.04,0.01l1.7,0.5
				c0.25,0.07,0.51-0.05,0.61-0.29l1.8-4.5c0.05-0.12,0.05-0.25,0-0.37l-1.8-4.5c-0.1-0.24-0.36-0.37-0.61-0.29l-1.7,0.5
				c-0.26,0.08-0.42,0.36-0.34,0.62c0,0.01,0.01,0.02,0.01,0.04L88.47,42L87.03,45.82z M88.9,45.89l-0.75-0.22l1.31-3.5
				c0.04-0.11,0.04-0.24,0-0.35l-1.31-3.5l0.75-0.22L90.46,42L88.9,45.89L88.9,45.89z"/>
		</g>
		<g>
			<path class="st1" d="M80.05,16.79c-0.06,0.13-0.06,0.29,0,0.42l3.5,7.5c0.12,0.25,0.41,0.36,0.66,0.24
				c0.11-0.05,0.21-0.15,0.25-0.27l3-7.5c0.05-0.12,0.05-0.25,0-0.37L85.14,11H91c0,0.55,0.45,1,1,1h2V9h-2c-0.55,0-1,0.45-1,1
				h-6.26l-0.28-0.69c-0.1-0.26-0.39-0.38-0.65-0.28c-0.12,0.05-0.21,0.14-0.27,0.25C83.55,9.29,80.05,16.79,80.05,16.79z M86.46,17
				l-2.5,6.24L81.05,17l2.91-6.24L86.46,17z"/>
			<path class="st1" d="M87.03,20.82c-0.1,0.26,0.03,0.55,0.29,0.64c0.01,0,0.02,0.01,0.04,0.01l1.7,0.5
				c0.25,0.07,0.51-0.05,0.61-0.29l1.8-4.5c0.05-0.12,0.05-0.25,0-0.37l-1.8-4.5c-0.1-0.24-0.36-0.37-0.61-0.29l-1.7,0.5
				c-0.26,0.08-0.42,0.36-0.34,0.62c0,0.01,0.01,0.02,0.01,0.04L88.47,17L87.03,20.82z M88.9,20.89l-0.75-0.22l1.31-3.5
				c0.04-0.11,0.04-0.24,0-0.35l-1.31-3.5l0.75-0.22L90.46,17L88.9,20.89L88.9,20.89z"/>
		</g>
	</g>
</g>
</svg>
