<?xml version="1.0" encoding="utf-8"?>
<!-- Generator: Adobe Illustrator 27.3.1, SVG Export Plug-In . SVG Version: 6.00 Build 0)  -->
<svg version="1.1" id="Layer_1" xmlns="http://www.w3.org/2000/svg" xmlns:xlink="http://www.w3.org/1999/xlink" x="0px" y="0px"
	 viewBox="0 0 500 500" style="enable-background:new 0 0 500 500;" xml:space="preserve">
<style type="text/css">
	.st0{fill:#F7F7F7;}
	.st1{font-family:'AppleSDGothicNeo-Thin-KSCpc-EUC-H';}
	.st2{font-size:56.155px;}
	.st3{font-family:'PingFangSC-Thin-GBpc-EUC-H';}
	.st4{font-family:'ITFDevanagari-Light';}
	.st5{font-family:'ArialHebrewScholar-Light';}
	.st6{font-family:'DamascusLight';}
	.st7{font-family:'PingFangHK-Ultralight-B5pc-H';}
</style>
<g>
	<g>
		<path class="st0" d="M69.41,142v-39.31h13.65c3.26,0,6.06,0.52,8.4,1.57c2.34,1.05,4.13,2.54,5.36,4.46
			c1.24,1.93,1.85,4.26,1.85,6.99c0,2.73-0.62,5.07-1.85,7.02c-1.24,1.95-3.02,3.44-5.36,4.49c-2.34,1.05-5.14,1.57-8.4,1.57H70.48
			l0.84-0.9V142H69.41z M71.32,127.91l-0.84-0.84h12.69c4.42,0,7.8-0.99,10.14-2.98c2.34-1.98,3.51-4.77,3.51-8.37
			c0-3.59-1.17-6.37-3.51-8.34c-2.34-1.97-5.72-2.95-10.14-2.95H70.48l0.84-0.9V127.91z"/>
		<path class="st0" d="M108.44,142v-29.14h1.8v8.03l-0.17-0.51c0.79-2.43,2.16-4.33,4.13-5.7c1.97-1.37,4.43-2.05,7.38-2.05v1.85
			c-0.08,0-0.16,0-0.25,0c-0.09,0-0.18,0-0.25,0c-3.37,0-6.01,1.07-7.92,3.2c-1.91,2.13-2.86,5.07-2.86,8.82V142H108.44z"/>
		<path class="st0" d="M141.23,142.17c-2.73,0-5.18-0.63-7.33-1.88c-2.15-1.25-3.86-2.99-5.11-5.22c-1.25-2.23-1.88-4.78-1.88-7.67
			c0-2.88,0.63-5.43,1.88-7.64c1.25-2.21,2.96-3.95,5.11-5.22c2.15-1.27,4.6-1.91,7.33-1.91c2.73,0,5.18,0.63,7.36,1.88
			c2.17,1.25,3.88,2.99,5.11,5.19c1.24,2.21,1.85,4.77,1.85,7.69c0,2.85-0.62,5.39-1.85,7.64c-1.24,2.25-2.94,4-5.11,5.25
			C146.42,141.54,143.96,142.17,141.23,142.17z M141.23,140.49c2.4,0,4.54-0.55,6.43-1.66c1.89-1.1,3.37-2.65,4.44-4.63
			c1.07-1.98,1.6-4.25,1.6-6.79c0-2.58-0.53-4.86-1.6-6.82c-1.07-1.97-2.55-3.49-4.44-4.58c-1.89-1.09-4.02-1.63-6.37-1.63
			c-2.4,0-4.53,0.54-6.4,1.63c-1.87,1.09-3.36,2.61-4.46,4.58c-1.1,1.97-1.66,4.24-1.66,6.82c0,2.55,0.55,4.81,1.66,6.79
			c1.1,1.98,2.59,3.53,4.46,4.63C136.76,139.94,138.87,140.49,141.23,140.49z"/>
		<path class="st0" d="M159.54,153.07c-1.16,0-2.27-0.16-3.34-0.48c-1.07-0.32-1.94-0.83-2.61-1.54l0.95-1.35
			c1.24,1.16,2.86,1.74,4.89,1.74c1.8,0,3.17-0.52,4.13-1.57c0.95-1.05,1.43-2.58,1.43-4.6v-32.4h1.85v32.63
			c0,2.28-0.63,4.12-1.88,5.5C163.7,152.37,161.9,153.07,159.54,153.07z M165.88,105.22c-0.49,0-0.92-0.19-1.29-0.56
			c-0.38-0.37-0.56-0.79-0.56-1.24c0-0.52,0.19-0.96,0.56-1.32c0.37-0.36,0.8-0.53,1.29-0.53c0.52,0,0.96,0.18,1.32,0.53
			c0.36,0.36,0.53,0.78,0.53,1.26c0,0.49-0.18,0.92-0.53,1.29C166.85,105.03,166.41,105.22,165.88,105.22z"/>
		<path class="st0" d="M190.76,142.17c-2.88,0-5.43-0.63-7.64-1.88c-2.21-1.25-3.95-3-5.22-5.25c-1.27-2.25-1.91-4.79-1.91-7.64
			c0-2.88,0.59-5.43,1.77-7.64c1.18-2.21,2.81-3.95,4.89-5.22c2.08-1.27,4.43-1.91,7.05-1.91c2.58,0,4.91,0.62,6.99,1.85
			s3.71,2.95,4.89,5.14c1.18,2.19,1.77,4.71,1.77,7.55c0,0.08,0,0.16,0,0.25c0,0.09,0,0.18,0,0.25h-26.11v-1.52h25.1l-0.73,0.9
			c0-2.43-0.52-4.61-1.54-6.54c-1.03-1.93-2.44-3.44-4.24-4.55c-1.8-1.1-3.84-1.66-6.12-1.66c-2.28,0-4.32,0.55-6.12,1.66
			c-1.8,1.1-3.21,2.62-4.24,4.55c-1.03,1.93-1.54,4.13-1.54,6.6v0.34c0,2.55,0.56,4.8,1.69,6.77s2.66,3.5,4.6,4.6
			c1.95,1.1,4.17,1.66,6.68,1.66c1.91,0,3.71-0.36,5.42-1.07c1.7-0.71,3.12-1.8,4.24-3.26l1.18,1.24c-1.31,1.57-2.91,2.76-4.8,3.57
			C194.9,141.77,192.89,142.17,190.76,142.17z"/>
		<path class="st0" d="M223.67,142.17c-2.77,0-5.25-0.63-7.44-1.88c-2.19-1.25-3.91-2.99-5.17-5.22c-1.25-2.23-1.88-4.78-1.88-7.67
			c0-2.88,0.63-5.44,1.88-7.67c1.25-2.23,2.98-3.97,5.17-5.22c2.19-1.25,4.67-1.88,7.44-1.88c2.21,0,4.25,0.42,6.12,1.26
			c1.87,0.84,3.43,2.09,4.66,3.73l-1.4,1.18c-1.09-1.53-2.44-2.66-4.07-3.37c-1.63-0.71-3.4-1.07-5.31-1.07
			c-2.4,0-4.55,0.54-6.46,1.63c-1.91,1.09-3.42,2.61-4.52,4.58c-1.1,1.97-1.66,4.24-1.66,6.82c0,2.58,0.55,4.86,1.66,6.82
			c1.1,1.97,2.61,3.5,4.52,4.6c1.91,1.1,4.06,1.66,6.46,1.66c1.91,0,3.68-0.37,5.31-1.1s2.98-1.84,4.07-3.34l1.4,1.12
			c-1.24,1.68-2.79,2.94-4.66,3.76C227.91,141.76,225.87,142.17,223.67,142.17z"/>
		<path class="st0" d="M238.32,114.49v-1.63h16.96v1.63H238.32z M251.24,142.17c-2.4,0-4.23-0.67-5.5-2.02
			c-1.27-1.35-1.91-3.16-1.91-5.45v-28.25h1.85v27.96c0,1.98,0.49,3.5,1.46,4.55c0.97,1.05,2.4,1.57,4.27,1.57
			c1.91,0,3.48-0.58,4.72-1.74l0.95,1.35c-0.71,0.67-1.59,1.18-2.64,1.52C253.39,142,252.32,142.17,251.24,142.17z"/>
		<path class="st0" d="M272.35,142.17c-2.4,0-4.64-0.37-6.74-1.1c-2.1-0.73-3.69-1.66-4.77-2.78l0.9-1.46
			c1.08,0.97,2.56,1.83,4.44,2.58c1.87,0.75,3.95,1.12,6.23,1.12c3.26,0,5.61-0.56,7.05-1.68c1.44-1.12,2.16-2.58,2.16-4.38
			c0-1.31-0.36-2.34-1.07-3.09c-0.71-0.75-1.65-1.33-2.81-1.74c-1.16-0.41-2.44-0.74-3.85-0.98c-1.4-0.24-2.82-0.52-4.24-0.84
			c-1.42-0.32-2.71-0.75-3.88-1.29c-1.16-0.54-2.1-1.3-2.81-2.27c-0.71-0.97-1.07-2.26-1.07-3.87c0-1.38,0.38-2.66,1.15-3.82
			c0.77-1.16,1.94-2.11,3.51-2.84s3.58-1.1,6.01-1.1c1.8,0,3.6,0.27,5.42,0.81c1.82,0.54,3.27,1.26,4.35,2.16l-0.95,1.46
			c-1.16-0.94-2.52-1.63-4.07-2.08c-1.55-0.45-3.15-0.67-4.8-0.67c-3.03,0-5.24,0.58-6.63,1.74c-1.39,1.16-2.08,2.58-2.08,4.27
			c0,1.35,0.36,2.42,1.07,3.23c0.71,0.81,1.65,1.41,2.81,1.82c1.16,0.41,2.44,0.75,3.85,1.01c1.4,0.26,2.81,0.54,4.21,0.84
			c1.4,0.3,2.69,0.71,3.85,1.24c1.16,0.52,2.1,1.25,2.81,2.19c0.71,0.94,1.07,2.21,1.07,3.82c0,1.5-0.42,2.84-1.26,4.02
			c-0.84,1.18-2.08,2.09-3.71,2.72C276.87,141.85,274.82,142.17,272.35,142.17z"/>
	</g>
</g>
<g>
	<text transform="matrix(1 0 0 1 21.2222 214.0029)" class="st0 st1 st2">프로젝트</text>
</g>
<g>
	<g>
		<path class="st0" d="M295.41,415.06c-1.14,0-2.17-0.26-3.07-0.78c-0.9-0.52-1.62-1.24-2.13-2.16c-0.52-0.92-0.78-1.98-0.78-3.17
			c0-1.19,0.26-2.25,0.78-3.17c0.52-0.92,1.23-1.64,2.13-2.16c0.91-0.52,1.93-0.78,3.07-0.78c0.91,0,1.76,0.17,2.53,0.52
			c0.77,0.35,1.41,0.86,1.93,1.54l-0.58,0.49c-0.45-0.63-1.01-1.1-1.68-1.39s-1.4-0.44-2.19-0.44c-0.99,0-1.88,0.22-2.67,0.67
			c-0.79,0.45-1.41,1.08-1.87,1.89c-0.46,0.81-0.68,1.75-0.68,2.82s0.23,2.01,0.68,2.82c0.46,0.81,1.08,1.45,1.87,1.9
			s1.68,0.68,2.67,0.68c0.79,0,1.52-0.15,2.19-0.45s1.23-0.76,1.68-1.38l0.58,0.46c-0.51,0.7-1.15,1.21-1.93,1.55
			C297.17,414.89,296.33,415.06,295.41,415.06z"/>
		<path class="st0" d="M304.72,414.99h-0.79v-16.24h0.79V414.99z M316.25,407.1h-11.67v-0.72h11.67V407.1z M316.11,398.75h0.79
			v16.24h-0.79V398.75z"/>
		<path class="st0" d="M324.07,415.08c-0.85,0-1.64-0.21-2.38-0.62c-0.73-0.41-1.33-0.97-1.78-1.68l0.49-0.51
			c0.45,0.67,0.99,1.18,1.62,1.54c0.63,0.36,1.32,0.55,2.06,0.55c2.24,0,3.37-1.34,3.37-4.01v-10.88h-6.03v-0.72h6.82v11.62
			c0,1.56-0.35,2.74-1.04,3.53C326.5,414.69,325.46,415.08,324.07,415.08z"/>
		<path class="st0" d="M336.69,414.99l-5.5-12.04h0.84l5.22,11.58h-0.35l5.24-11.58h0.81l-5.5,12.04H336.69z"/>
		<path class="st0" d="M348.82,415.06c-0.91,0-1.69-0.14-2.33-0.42c-0.64-0.28-1.13-0.68-1.47-1.2c-0.34-0.52-0.51-1.11-0.51-1.77
			c0-0.59,0.14-1.13,0.42-1.64s0.74-0.91,1.38-1.21c0.64-0.3,1.5-0.45,2.59-0.45h4.66v0.63h-4.66c-1.31,0-2.25,0.25-2.79,0.74
			s-0.82,1.12-0.82,1.88c0,0.85,0.32,1.53,0.95,2.03c0.63,0.5,1.52,0.75,2.64,0.75c1.11,0,2.03-0.25,2.76-0.75
			c0.73-0.5,1.28-1.22,1.65-2.15l0.26,0.51c-0.31,0.91-0.87,1.65-1.67,2.2C351.05,414.78,350.04,415.06,348.82,415.06z
			 M353.3,414.99v-2.81l-0.02-0.42v-4.57c0-1.19-0.32-2.1-0.95-2.71c-0.63-0.62-1.55-0.93-2.76-0.93c-0.88,0-1.69,0.15-2.41,0.45
			c-0.73,0.3-1.35,0.69-1.88,1.17l-0.42-0.56c0.57-0.54,1.28-0.97,2.11-1.29c0.84-0.32,1.71-0.48,2.62-0.48
			c1.44,0,2.54,0.37,3.31,1.1s1.15,1.81,1.15,3.24v7.79H353.3z"/>
		<path class="st0" d="M364.73,402.86c0.99,0,1.84,0.19,2.56,0.58s1.28,0.96,1.68,1.71c0.4,0.75,0.6,1.67,0.6,2.77v7.08h-0.77v-7.03
			c0-1.44-0.36-2.53-1.09-3.27c-0.73-0.74-1.75-1.11-3.06-1.11c-1,0-1.87,0.2-2.6,0.6c-0.73,0.4-1.28,0.97-1.67,1.72
			c-0.39,0.74-0.58,1.61-0.58,2.6v6.5h-0.77v-12.04h0.74v3.39l-0.09-0.21c0.37-1,0.99-1.8,1.85-2.39
			C362.4,403.15,363.47,402.86,364.73,402.86z"/>
		<path class="st0" d="M374.99,414.99v-16.24h5.64c1.35,0,2.5,0.22,3.47,0.65c0.97,0.43,1.71,1.05,2.22,1.84
			c0.51,0.8,0.77,1.76,0.77,2.89s-0.26,2.1-0.77,2.9c-0.51,0.8-1.25,1.42-2.22,1.86c-0.97,0.43-2.12,0.65-3.47,0.65h-5.2l0.35-0.37
			v5.82H374.99z M375.78,409.17l-0.35-0.35h5.24c1.83,0,3.22-0.41,4.19-1.23c0.97-0.82,1.45-1.97,1.45-3.46
			c0-1.49-0.48-2.63-1.45-3.45c-0.97-0.81-2.36-1.22-4.19-1.22h-5.24l0.35-0.37V409.17z M386.4,414.99l-4.22-5.89h0.91l4.25,5.89
			H386.4z"/>
		<path class="st0" d="M391.25,414.99v-17.21h0.77v17.21H391.25z"/>
		<path class="st0" d="M401.34,414.99v-5.78l0.19,0.53l-6.75-11h0.86l6.31,10.25h-0.39l6.33-10.25h0.83l-6.77,11l0.19-0.53v5.78
			H401.34z"/>
		<path class="st0" d="M414.92,415.08c-1.22,0-2.33-0.21-3.34-0.63c-1.01-0.42-1.77-0.96-2.3-1.62l0.42-0.56
			c0.46,0.59,1.16,1.08,2.09,1.49s1.96,0.6,3.11,0.6c1.55,0,2.72-0.35,3.53-1.06c0.8-0.7,1.21-1.64,1.21-2.82
			c0-1.17-0.41-2.11-1.22-2.82c-0.81-0.7-2.08-1.06-3.79-1.06h-0.9v-0.56l5.29-6.89l0.09,0.3h-9.28v-0.72h9.98v0.56l-5.29,6.89
			l-0.23-0.28h0.42c1.92,0,3.35,0.42,4.29,1.26s1.42,1.95,1.42,3.31c0,0.9-0.21,1.69-0.63,2.38c-0.42,0.69-1.03,1.23-1.84,1.62
			C417.11,414.89,416.11,415.08,414.92,415.08z"/>
		<path class="st0" d="M424.66,414.99v-16.24h5.64c1.35,0,2.5,0.22,3.47,0.65c0.97,0.43,1.71,1.05,2.21,1.84
			c0.51,0.8,0.77,1.76,0.77,2.89s-0.25,2.1-0.77,2.9c-0.51,0.8-1.25,1.42-2.21,1.86c-0.97,0.43-2.12,0.65-3.47,0.65h-5.2l0.35-0.37
			v5.82H424.66z M425.45,409.17l-0.35-0.35h5.24c1.82,0,3.22-0.41,4.19-1.23c0.97-0.82,1.45-1.97,1.45-3.46
			c0-1.49-0.48-2.63-1.45-3.45c-0.97-0.81-2.36-1.22-4.19-1.22h-5.24l0.35-0.37V409.17z M436.07,414.99l-4.22-5.89h0.9l4.25,5.89
			H436.07z"/>
		<path class="st0" d="M439.39,414.99v-0.53l8.45-11.09l0.23,0.25h-8.56v-0.67h9.16v0.53l-8.47,11.07l-0.3-0.23h8.89v0.67H439.39z"
			/>
	</g>
</g>
<text transform="matrix(1 0 0 1 26.5483 301.5518)" class="st0 st3 st2">プロジェクト</text>
<text transform="matrix(1 0 0 1 259.4824 238.2754)" class="st0 st3 st2">Projekte</text>
<g>
	<g>
		<path class="st0" d="M251.76,54.37V25.23h24.93v29.14h-1.85V26.29l0.56,0.62h-22.41l0.62-0.62v28.08H251.76z"/>
		<path class="st0" d="M289.44,65.26V25.23h1.8v10.22l-0.5,4.44l0.56,4.44v20.95H289.44z M303.81,54.54c-2.62,0-4.98-0.61-7.08-1.83
			c-2.1-1.22-3.75-2.94-4.97-5.17c-1.22-2.23-1.82-4.8-1.82-7.72c0-2.96,0.61-5.55,1.82-7.78c1.22-2.23,2.87-3.96,4.97-5.19
			c2.1-1.24,4.45-1.85,7.08-1.85c2.7,0,5.12,0.64,7.27,1.91c2.15,1.27,3.86,3.01,5.11,5.22c1.25,2.21,1.88,4.77,1.88,7.69
			c0,2.88-0.63,5.43-1.88,7.64c-1.25,2.21-2.96,3.94-5.11,5.19C308.93,53.91,306.51,54.54,303.81,54.54z M303.76,52.85
			c2.36,0,4.48-0.54,6.37-1.63c1.89-1.09,3.38-2.62,4.46-4.6c1.08-1.98,1.63-4.25,1.63-6.79c0-2.62-0.54-4.9-1.63-6.85
			c-1.09-1.95-2.58-3.47-4.46-4.58c-1.89-1.1-4.02-1.66-6.37-1.66c-2.4,0-4.53,0.55-6.4,1.66c-1.87,1.1-3.35,2.63-4.44,4.58
			c-1.09,1.95-1.63,4.23-1.63,6.85c0,2.55,0.54,4.81,1.63,6.79c1.08,1.98,2.56,3.52,4.44,4.6
			C299.23,52.31,301.36,52.85,303.76,52.85z"/>
		<path class="st0" d="M339.02,54.54c-2.73,0-5.18-0.63-7.33-1.88c-2.15-1.25-3.86-2.99-5.11-5.22c-1.25-2.23-1.88-4.78-1.88-7.67
			c0-2.88,0.63-5.43,1.88-7.64c1.25-2.21,2.96-3.95,5.11-5.22c2.15-1.27,4.59-1.91,7.33-1.91c2.73,0,5.18,0.63,7.36,1.88
			c2.17,1.25,3.87,2.99,5.11,5.19c1.24,2.21,1.85,4.77,1.85,7.69c0,2.85-0.62,5.39-1.85,7.64c-1.24,2.25-2.94,4-5.11,5.25
			C344.21,53.91,341.75,54.54,339.02,54.54z M339.02,52.85c2.4,0,4.54-0.55,6.43-1.66c1.89-1.1,3.37-2.65,4.44-4.63
			c1.07-1.98,1.6-4.25,1.6-6.79c0-2.58-0.53-4.86-1.6-6.82c-1.07-1.97-2.55-3.49-4.44-4.58c-1.89-1.09-4.02-1.63-6.37-1.63
			c-2.4,0-4.53,0.54-6.4,1.63c-1.87,1.09-3.36,2.61-4.46,4.58c-1.11,1.97-1.66,4.24-1.66,6.82c0,2.55,0.55,4.81,1.66,6.79
			c1.1,1.98,2.59,3.53,4.46,4.63C334.55,52.3,336.66,52.85,339.02,52.85z"/>
		<path class="st0" d="M374.85,54.54c-2.88,0-5.43-0.63-7.64-1.88c-2.21-1.25-3.95-3-5.22-5.25c-1.27-2.25-1.91-4.79-1.91-7.64
			c0-2.88,0.59-5.43,1.77-7.64c1.18-2.21,2.81-3.95,4.89-5.22c2.08-1.27,4.43-1.91,7.05-1.91c2.58,0,4.91,0.62,6.99,1.85
			s3.71,2.95,4.89,5.14c1.18,2.19,1.77,4.71,1.77,7.55c0,0.08,0,0.16,0,0.25c0,0.09,0,0.18,0,0.25h-26.11v-1.52h25.1l-0.73,0.9
			c0-2.43-0.51-4.61-1.54-6.54c-1.03-1.93-2.44-3.44-4.24-4.55c-1.8-1.1-3.84-1.66-6.12-1.66c-2.28,0-4.32,0.55-6.12,1.66
			c-1.8,1.1-3.21,2.62-4.24,4.55c-1.03,1.93-1.54,4.13-1.54,6.6v0.34c0,2.55,0.56,4.8,1.68,6.77s2.66,3.5,4.61,4.6
			c1.95,1.1,4.17,1.66,6.68,1.66c1.91,0,3.72-0.36,5.42-1.07c1.7-0.71,3.12-1.8,4.24-3.26l1.18,1.24c-1.31,1.57-2.91,2.76-4.8,3.57
			C379,54.14,376.98,54.54,374.85,54.54z"/>
		<path class="st0" d="M396.86,54.37V25.23h1.85v29.14H396.86z M398.1,40.39v-1.63h8.98v1.63H398.1z M407.25,40l-1.74-0.39
			l12.24-14.38h2.13L407.25,40z M418.54,54.37l-12.97-14.71l1.57-0.84l13.65,15.55H418.54z"/>
		<path class="st0" d="M433.31,54.37V26.29l0.56,0.62h-12.24v-1.68h25.16v1.68h-12.24l0.62-0.62v28.08H433.31z"/>
		<path class="st0" d="M463.91,36.06c3.59,0.04,6.33,0.82,8.2,2.36c1.87,1.54,2.81,3.76,2.81,6.68c0,3.07-0.98,5.41-2.95,7.02
			c-1.96,1.61-4.84,2.4-8.62,2.36l-10.39-0.11V25.23h1.85v10.73L463.91,36.06z M463.35,52.91c3.22,0.04,5.64-0.6,7.27-1.91
			c1.63-1.31,2.44-3.26,2.44-5.84c0-2.55-0.81-4.44-2.42-5.67c-1.61-1.24-4.04-1.87-7.3-1.91l-8.54-0.11v15.39L463.35,52.91z
			 M480.59,54.37V25.23h1.85v29.14H480.59z"/>
	</g>
</g>
<text transform="matrix(1 0 0 1 33.9771 397.4229)" class="st0 st4 st2">परियोजनाएं</text>
<text transform="matrix(1 0 0 1 283.2266 354.2129)" class="st0 st5 st2">פרויקטים</text>
<g>
	<g>
		<path class="st0" d="M169.83,488.94V448.9h1.8v10.22l-0.51,4.44l0.56,4.44v20.95H169.83z M184.2,478.22
			c-2.62,0-4.98-0.61-7.08-1.83c-2.1-1.22-3.75-2.94-4.97-5.17c-1.22-2.23-1.82-4.8-1.82-7.72c0-2.96,0.61-5.55,1.82-7.78
			c1.22-2.23,2.87-3.96,4.97-5.19c2.1-1.24,4.45-1.85,7.08-1.85c2.7,0,5.12,0.64,7.27,1.91c2.15,1.27,3.86,3.01,5.11,5.22
			c1.25,2.21,1.88,4.77,1.88,7.69c0,2.88-0.63,5.43-1.88,7.64c-1.25,2.21-2.96,3.94-5.11,5.19
			C189.32,477.59,186.9,478.22,184.2,478.22z M184.15,476.53c2.36,0,4.48-0.54,6.37-1.63c1.89-1.09,3.38-2.62,4.46-4.6
			c1.09-1.98,1.63-4.25,1.63-6.79c0-2.62-0.54-4.9-1.63-6.85c-1.09-1.95-2.57-3.47-4.46-4.58c-1.89-1.1-4.02-1.66-6.37-1.66
			c-2.4,0-4.53,0.55-6.4,1.66c-1.87,1.1-3.35,2.63-4.44,4.58c-1.09,1.95-1.63,4.23-1.63,6.85c0,2.55,0.54,4.81,1.63,6.79
			c1.09,1.98,2.56,3.52,4.44,4.6C179.62,475.99,181.75,476.53,184.15,476.53z"/>
		<path class="st0" d="M207.62,478.05V448.9h1.8v8.03l-0.17-0.51c0.79-2.43,2.16-4.33,4.13-5.7c1.97-1.37,4.43-2.05,7.38-2.05v1.85
			c-0.08,0-0.16,0-0.25,0c-0.09,0-0.18,0-0.25,0c-3.37,0-6.01,1.07-7.92,3.2s-2.86,5.07-2.86,8.82v15.5H207.62z"/>
		<path class="st0" d="M240.41,478.22c-2.73,0-5.18-0.63-7.33-1.88c-2.15-1.25-3.86-2.99-5.11-5.22c-1.25-2.23-1.88-4.78-1.88-7.67
			c0-2.88,0.63-5.43,1.88-7.64c1.25-2.21,2.96-3.95,5.11-5.22c2.15-1.27,4.6-1.91,7.33-1.91c2.73,0,5.18,0.63,7.36,1.88
			c2.17,1.25,3.88,2.99,5.11,5.19c1.24,2.21,1.85,4.77,1.85,7.69c0,2.85-0.62,5.39-1.85,7.64c-1.23,2.25-2.94,4-5.11,5.25
			C245.6,477.59,243.15,478.22,240.41,478.22z M240.41,476.53c2.4,0,4.54-0.55,6.43-1.66c1.89-1.1,3.37-2.65,4.44-4.63
			c1.07-1.98,1.6-4.25,1.6-6.79c0-2.58-0.53-4.86-1.6-6.82c-1.07-1.97-2.55-3.49-4.44-4.58c-1.89-1.08-4.02-1.63-6.37-1.63
			c-2.4,0-4.53,0.54-6.4,1.63c-1.87,1.09-3.36,2.61-4.46,4.58c-1.1,1.96-1.66,4.24-1.66,6.82c0,2.55,0.55,4.81,1.66,6.79
			c1.1,1.98,2.59,3.53,4.46,4.63C235.94,475.98,238.05,476.53,240.41,476.53z"/>
		<path class="st0" d="M262.54,489.11c-1.31,0-2.53-0.22-3.65-0.65c-1.12-0.43-2.08-1.08-2.86-1.94l1.07-1.46
			c0.79,0.82,1.61,1.43,2.47,1.83c0.86,0.39,1.85,0.59,2.98,0.59c1.42,0,2.68-0.39,3.76-1.18s2.1-2.23,3.03-4.32l2.13-4.6l0.28-0.45
			l12.69-28.02h1.96l-15.27,33.52c-0.75,1.65-1.56,2.97-2.44,3.96c-0.88,0.99-1.83,1.69-2.84,2.11
			C264.84,488.91,263.74,489.11,262.54,489.11z M271.52,478.72l-13.59-29.82h2.02l12.63,27.91L271.52,478.72z"/>
		<path class="st0" d="M304.37,478.22c-2.88,0-5.43-0.63-7.64-1.88c-2.21-1.25-3.95-3-5.22-5.25s-1.91-4.79-1.91-7.64
			c0-2.88,0.59-5.43,1.77-7.64c1.18-2.21,2.81-3.95,4.89-5.22c2.08-1.27,4.43-1.91,7.05-1.91c2.58,0,4.91,0.62,6.99,1.85
			c2.08,1.24,3.71,2.95,4.89,5.14c1.18,2.19,1.77,4.71,1.77,7.55c0,0.08,0,0.16,0,0.25c0,0.09,0,0.18,0,0.25h-26.11v-1.52h25.1
			l-0.73,0.9c0-2.43-0.51-4.61-1.54-6.54c-1.03-1.93-2.44-3.44-4.24-4.55s-3.84-1.66-6.12-1.66c-2.28,0-4.32,0.55-6.12,1.66
			s-3.21,2.62-4.24,4.55c-1.03,1.93-1.54,4.13-1.54,6.6v0.34c0,2.55,0.56,4.8,1.68,6.77c1.12,1.96,2.66,3.5,4.61,4.6
			c1.95,1.1,4.17,1.66,6.68,1.66c1.91,0,3.72-0.35,5.42-1.07c1.7-0.71,3.12-1.8,4.24-3.26l1.18,1.24c-1.31,1.57-2.91,2.76-4.8,3.57
			C308.52,477.82,306.51,478.22,304.37,478.22z"/>
		<path class="st0" d="M337.28,478.22c-2.77,0-5.25-0.63-7.44-1.88c-2.19-1.25-3.91-2.99-5.17-5.22c-1.25-2.23-1.88-4.78-1.88-7.67
			c0-2.88,0.63-5.44,1.88-7.67c1.25-2.23,2.98-3.97,5.17-5.22c2.19-1.25,4.67-1.88,7.44-1.88c2.21,0,4.25,0.42,6.12,1.26
			c1.87,0.84,3.42,2.09,4.66,3.73l-1.4,1.18c-1.09-1.53-2.44-2.66-4.07-3.37c-1.63-0.71-3.4-1.07-5.31-1.07
			c-2.4,0-4.55,0.54-6.46,1.63c-1.91,1.09-3.42,2.61-4.52,4.58c-1.1,1.96-1.66,4.24-1.66,6.82s0.55,4.86,1.66,6.82
			c1.1,1.96,2.61,3.5,4.52,4.6c1.91,1.1,4.06,1.66,6.46,1.66c1.91,0,3.68-0.36,5.31-1.09c1.63-0.73,2.98-1.84,4.07-3.34l1.4,1.12
			c-1.24,1.68-2.79,2.94-4.66,3.76C341.53,477.81,339.49,478.22,337.28,478.22z"/>
		<path class="st0" d="M351.94,450.53v-1.63h16.96v1.63H351.94z M364.85,478.22c-2.4,0-4.23-0.67-5.5-2.02s-1.91-3.16-1.91-5.45
			V442.5h1.85v27.96c0,1.98,0.49,3.5,1.46,4.55c0.97,1.05,2.4,1.57,4.27,1.57c1.91,0,3.48-0.58,4.72-1.74l0.96,1.35
			c-0.71,0.67-1.59,1.18-2.64,1.52S365.94,478.22,364.85,478.22z"/>
		<path class="st0" d="M389.95,478.22c-2.73,0-5.18-0.63-7.33-1.88c-2.15-1.25-3.86-2.99-5.11-5.22c-1.25-2.23-1.88-4.78-1.88-7.67
			c0-2.88,0.63-5.43,1.88-7.64s2.96-3.95,5.11-5.22c2.15-1.27,4.6-1.91,7.33-1.91s5.18,0.63,7.36,1.88
			c2.17,1.25,3.88,2.99,5.11,5.19c1.24,2.21,1.85,4.77,1.85,7.69c0,2.85-0.62,5.39-1.85,7.64s-2.94,4-5.11,5.25
			C395.14,477.59,392.68,478.22,389.95,478.22z M389.95,476.53c2.4,0,4.54-0.55,6.43-1.66c1.89-1.1,3.37-2.65,4.44-4.63
			c1.07-1.98,1.6-4.25,1.6-6.79c0-2.58-0.53-4.86-1.6-6.82c-1.07-1.97-2.55-3.49-4.44-4.58c-1.89-1.08-4.01-1.63-6.37-1.63
			c-2.4,0-4.53,0.54-6.4,1.63c-1.87,1.09-3.36,2.61-4.46,4.58c-1.1,1.96-1.66,4.24-1.66,6.82c0,2.55,0.55,4.81,1.66,6.79
			c1.1,1.98,2.59,3.53,4.46,4.63C385.48,475.98,387.59,476.53,389.95,476.53z"/>
		<path class="st0" d="M420.44,478.22c-2.4,0-4.64-0.37-6.74-1.1c-2.1-0.73-3.69-1.66-4.77-2.78l0.9-1.46
			c1.08,0.97,2.56,1.83,4.44,2.58s3.95,1.12,6.23,1.12c3.26,0,5.61-0.56,7.05-1.68c1.44-1.12,2.16-2.58,2.16-4.38
			c0-1.31-0.36-2.34-1.07-3.09c-0.71-0.75-1.65-1.33-2.81-1.74c-1.16-0.41-2.44-0.74-3.85-0.98c-1.4-0.24-2.82-0.52-4.24-0.84
			c-1.42-0.32-2.71-0.75-3.88-1.29c-1.16-0.54-2.1-1.3-2.81-2.27c-0.71-0.97-1.07-2.26-1.07-3.88c0-1.38,0.38-2.66,1.15-3.82
			c0.77-1.16,1.94-2.11,3.51-2.84c1.57-0.73,3.57-1.09,6.01-1.09c1.8,0,3.6,0.27,5.42,0.81c1.82,0.54,3.27,1.26,4.35,2.16
			l-0.95,1.46c-1.16-0.94-2.52-1.63-4.07-2.08c-1.55-0.45-3.15-0.67-4.8-0.67c-3.03,0-5.24,0.58-6.63,1.74
			c-1.39,1.16-2.08,2.58-2.08,4.27c0,1.35,0.36,2.42,1.07,3.23c0.71,0.81,1.65,1.41,2.81,1.83c1.16,0.41,2.44,0.75,3.85,1.01
			c1.4,0.26,2.81,0.54,4.21,0.84c1.4,0.3,2.69,0.71,3.85,1.24s2.1,1.25,2.81,2.19c0.71,0.94,1.07,2.21,1.07,3.82
			c0,1.5-0.42,2.84-1.26,4.01c-0.84,1.18-2.08,2.09-3.71,2.72C424.96,477.9,422.92,478.22,420.44,478.22z"/>
	</g>
</g>
<text transform="matrix(1 0 0 1 39.0684 58.5786)" class="st0 st6 st2">مشاريع</text>
<g>
	<g>
		<path class="st0" d="M289.6,134.29c-0.26,0-0.5-0.03-0.73-0.08c-0.22-0.06-0.43-0.12-0.62-0.2c0.34-0.34,0.58-0.77,0.73-1.29
			c0.15-0.52,0.22-1.09,0.22-1.68c0-0.49-0.04-0.91-0.11-1.26c-0.08-0.36-0.15-0.66-0.22-0.93h28.08c-0.08,0.26-0.15,0.57-0.22,0.93
			c-0.08,0.36-0.11,0.78-0.11,1.26c0,0.6,0.07,1.16,0.22,1.68c0.15,0.52,0.39,0.95,0.73,1.29c-0.15,0.08-0.34,0.14-0.56,0.2
			c-0.22,0.06-0.49,0.08-0.79,0.08c-0.82,0-1.46-0.27-1.91-0.81c-0.45-0.54-0.67-1.21-0.67-1.99c0-0.15,0-0.3,0-0.45
			s0.02-0.32,0.06-0.51h-21.56c0.04,0.19,0.06,0.36,0.06,0.51s0,0.3,0,0.45c0,0.79-0.22,1.45-0.67,1.99
			C291.06,134.02,290.42,134.29,289.6,134.29z M308.52,169.11c-0.45-0.3-0.8-0.74-1.04-1.32c-0.24-0.58-0.36-1.36-0.36-2.33
			c0-1.01,0.02-2.22,0.06-3.62c0.04-1.4,0.08-2.85,0.11-4.35c0.04-1.5,0.06-2.93,0.08-4.3c0.02-1.37,0.03-2.54,0.03-3.51
			c0-1.09-0.23-1.85-0.7-2.3c-0.47-0.45-1.32-0.67-2.55-0.67h-2.47v-16.96h2.41v15.22h1.4c1.68,0,2.84,0.4,3.45,1.21
			c0.62,0.8,0.93,1.81,0.93,3c0,0.97-0.02,2.14-0.06,3.51c-0.04,1.37-0.08,2.79-0.11,4.27c-0.04,1.48-0.07,2.89-0.11,4.24
			c-0.04,1.35-0.06,2.47-0.06,3.37c0,1.12,0.22,1.88,0.67,2.27c0.45,0.39,1.09,0.59,1.91,0.59v1.4L308.52,169.11z"/>
		<path class="st0" d="M346.37,171.18c-0.71,0-1.3-0.22-1.77-0.67c-0.47-0.45-0.74-0.97-0.81-1.57h-6.85
			c-2.21,0-4.16-0.21-5.84-0.62c-1.69-0.41-3.09-1.09-4.21-2.05c-1.12-0.96-1.98-2.23-2.55-3.82c-0.58-1.59-0.87-3.57-0.87-5.92
			v-5.9c0-5.2,0.66-9.4,1.99-12.58c1.33-3.18,3.29-5.51,5.9-6.99c2.6-1.48,5.77-2.22,9.52-2.22h4.04l-3.42,1.57h-1.12
			c-2.96,0-5.53,0.66-7.72,1.97s-3.89,3.45-5.11,6.43c-1.22,2.98-1.83,6.99-1.83,12.04v5.45c0,2.1,0.23,3.85,0.7,5.25
			c0.47,1.4,1.18,2.53,2.13,3.37c0.96,0.84,2.15,1.44,3.59,1.8s3.15,0.53,5.14,0.53h6.51c0.08-0.64,0.35-1.18,0.81-1.63
			c0.47-0.45,1.06-0.67,1.77-0.67c0.3,0,0.53,0.03,0.7,0.08c0.17,0.06,0.33,0.12,0.48,0.2c-0.26,0.34-0.47,0.76-0.62,1.26
			c-0.15,0.5-0.22,1.02-0.22,1.54c0,0.56,0.08,1.08,0.22,1.57c0.15,0.49,0.36,0.92,0.62,1.29c-0.15,0.07-0.31,0.14-0.48,0.2
			C346.91,171.16,346.67,171.18,346.37,171.18z M342.67,140.69c-1.68,0-3-0.51-3.96-1.54c-0.95-1.03-1.43-2.31-1.43-3.85
			c0-1.35,0.29-2.51,0.87-3.48c0.58-0.97,1.39-1.71,2.44-2.22c1.05-0.5,2.23-0.76,3.54-0.76h1.57c1.12,0,2.1,0.22,2.92,0.65
			c0.82,0.43,1.47,1.04,1.94,1.83c0.47,0.79,0.7,1.72,0.7,2.81c0,1.24-0.28,2.35-0.84,3.34c-0.56,0.99-1.34,1.78-2.33,2.36
			c-0.99,0.58-2.14,0.87-3.45,0.87H342.67z M343.79,139.29c1.68,0,2.99-0.49,3.9-1.46c0.92-0.97,1.38-2.19,1.38-3.65
			c0-1.24-0.37-2.19-1.12-2.86s-1.85-1.01-3.31-1.01c-1.72,0-3.02,0.44-3.9,1.32c-0.88,0.88-1.32,2.07-1.32,3.57
			c0,1.24,0.37,2.23,1.12,2.98C341.28,138.91,342.37,139.29,343.79,139.29z"/>
		<path class="st0" d="M356.59,172.7c-0.26,0-0.5-0.03-0.73-0.08c-0.22-0.06-0.43-0.14-0.62-0.25c0.34-0.34,0.58-0.77,0.73-1.29
			c0.15-0.52,0.22-1.07,0.22-1.63c0-0.49-0.04-0.91-0.11-1.26c-0.08-0.36-0.15-0.66-0.22-0.93h28.08c-0.08,0.26-0.15,0.57-0.22,0.93
			c-0.08,0.36-0.11,0.78-0.11,1.26c0,0.56,0.07,1.1,0.22,1.63c0.15,0.52,0.39,0.96,0.73,1.29c-0.15,0.11-0.34,0.2-0.56,0.25
			c-0.22,0.06-0.49,0.08-0.79,0.08c-0.82,0-1.46-0.27-1.91-0.81c-0.45-0.54-0.67-1.21-0.67-1.99c0-0.15,0-0.31,0-0.48
			c0-0.17,0.02-0.33,0.06-0.48h-21.56c0.04,0.15,0.06,0.31,0.06,0.48c0,0.17,0,0.33,0,0.48c0,0.79-0.22,1.45-0.67,1.99
			C358.05,172.43,357.42,172.7,356.59,172.7z M358.39,130.25c-0.26,0-0.5-0.04-0.7-0.11s-0.38-0.13-0.53-0.17
			c0.34-0.37,0.58-0.81,0.73-1.32c0.15-0.51,0.22-1.04,0.22-1.6s-0.08-1.08-0.25-1.57c-0.17-0.49-0.4-0.88-0.7-1.18
			c0.15-0.11,0.33-0.2,0.53-0.25c0.21-0.06,0.44-0.08,0.7-0.08c0.75,0,1.36,0.22,1.83,0.65c0.47,0.43,0.74,0.98,0.81,1.66h18.25
			c0.08-0.64,0.35-1.18,0.81-1.63c0.47-0.45,1.08-0.67,1.83-0.67c0.26,0,0.5,0.03,0.7,0.08c0.21,0.06,0.38,0.14,0.53,0.25
			c-0.34,0.34-0.58,0.76-0.73,1.26c-0.15,0.51-0.22,1.04-0.22,1.6s0.08,1.09,0.25,1.57c0.17,0.49,0.4,0.9,0.7,1.24
			c-0.15,0.08-0.33,0.14-0.53,0.2c-0.21,0.06-0.44,0.08-0.7,0.08c-0.75,0-1.36-0.21-1.83-0.62c-0.47-0.41-0.74-0.97-0.81-1.68
			h-18.25c-0.08,0.64-0.35,1.18-0.81,1.63C359.75,130.02,359.14,130.25,358.39,130.25z M367.99,168.38
			c-1.57-1.83-3.01-3.87-4.32-6.09c-1.31-2.23-2.35-4.59-3.12-7.08c-0.77-2.49-1.15-5.01-1.15-7.55c0-2.36,0.41-4.45,1.24-6.29
			c0.82-1.83,2.08-3.28,3.76-4.32c1.68-1.05,3.8-1.57,6.35-1.57c2.4,0,4.39,0.64,5.98,1.91c1.59,1.27,2.39,3.03,2.39,5.28
			s-0.67,4.11-1.99,5.59c-1.33,1.48-3.24,2.62-5.73,3.43c-2.49,0.81-5.49,1.34-9.01,1.6c0.34,1.5,0.92,3.15,1.74,4.97
			c0.82,1.82,1.82,3.61,3,5.39c1.18,1.78,2.44,3.36,3.79,4.75H367.99z M362.04,151.64c3.14-0.22,5.81-0.65,8-1.29
			s3.88-1.58,5.05-2.84c1.18-1.25,1.77-2.84,1.77-4.75c0-1.87-0.6-3.28-1.8-4.21c-1.2-0.94-2.71-1.4-4.55-1.4
			c-2.17,0-3.91,0.48-5.22,1.43c-1.31,0.95-2.25,2.19-2.81,3.71s-0.84,3.14-0.84,4.86c0,0.82,0.03,1.62,0.08,2.39
			C361.79,150.3,361.89,151.01,362.04,151.64z M368.83,136.2v-9.32h2.3v9.32H368.83z"/>
		<path class="st0" d="M394.89,140.24c-1.16,0-2.02-0.27-2.58-0.81c-0.56-0.54-0.84-1.36-0.84-2.44v-6.46
			c0-1.16-0.19-1.95-0.56-2.36c-0.37-0.41-0.99-0.62-1.85-0.62v-1.4l3.54-0.22c0.41,0.26,0.72,0.7,0.93,1.32
			c0.21,0.62,0.31,1.47,0.31,2.56v5.78c0,0.82,0.08,1.45,0.25,1.88c0.17,0.43,0.54,0.73,1.12,0.9c0.58,0.17,1.49,0.25,2.72,0.25
			v1.29c-0.64,0.11-1.15,0.2-1.54,0.25C395.98,140.21,395.49,140.24,394.89,140.24z M394.78,169.11c-0.3-0.45-0.55-1.11-0.76-1.99
			c-0.21-0.88-0.31-1.9-0.31-3.06v-4.44c0-2.4,0.5-4.35,1.49-5.87c0.99-1.52,2.25-2.59,3.79-3.23h-5.28c0-3.48,0.52-6.36,1.57-8.65
			s2.52-4,4.41-5.14c1.89-1.14,4.09-1.71,6.6-1.71c2.21,0,4.01,0.41,5.42,1.24c1.4,0.82,2.43,2.11,3.09,3.85
			c0.65,1.74,0.98,4,0.98,6.77c0,0.97-0.01,2.19-0.03,3.65c-0.02,1.46-0.04,3-0.06,4.6c-0.02,1.61-0.04,3.16-0.06,4.66
			c-0.02,1.5-0.03,2.79-0.03,3.88c0,1.61,0.26,2.65,0.79,3.12c0.52,0.47,1.22,0.7,2.08,0.7v1.35l-4.21,0.28
			c-0.3-0.45-0.55-1.07-0.76-1.85c-0.21-0.79-0.31-1.85-0.31-3.2c0-1.72,0.02-3.6,0.06-5.64c0.04-2.04,0.07-4.07,0.08-6.09
			c0.02-2.02,0.03-3.84,0.03-5.45c0-3.44-0.59-6.01-1.77-7.69c-1.18-1.69-3.02-2.53-5.53-2.53c-2.1,0-3.88,0.5-5.36,1.52
			c-1.48,1.01-2.61,2.44-3.4,4.29c-0.79,1.85-1.18,4.05-1.18,6.6h8.14v1.35c-1.98,0.19-3.58,0.68-4.77,1.49
			c-1.2,0.81-2.06,1.86-2.58,3.17c-0.52,1.31-0.79,2.79-0.79,4.44v4.16c0,1.61,0.26,2.65,0.79,3.12c0.52,0.47,1.22,0.7,2.08,0.7
			v1.35L394.78,169.11z"/>
		<path class="st0" d="M425.16,152.32c-0.26,0-0.51-0.03-0.73-0.08c-0.22-0.06-0.43-0.14-0.62-0.25c0.34-0.34,0.58-0.77,0.73-1.29
			c0.15-0.52,0.22-1.07,0.22-1.63c0-0.49-0.04-0.91-0.11-1.26c-0.08-0.36-0.15-0.66-0.22-0.93h28.08c-0.08,0.26-0.15,0.57-0.22,0.93
			c-0.08,0.36-0.11,0.78-0.11,1.26c0,0.56,0.08,1.1,0.22,1.63s0.39,0.95,0.73,1.29c-0.15,0.11-0.34,0.2-0.56,0.25
			c-0.22,0.06-0.49,0.08-0.79,0.08c-0.82,0-1.46-0.27-1.91-0.81c-0.45-0.54-0.67-1.21-0.67-1.99c0-0.15,0-0.31,0-0.48
			c0-0.17,0.02-0.33,0.06-0.48h-21.56c0.04,0.15,0.06,0.31,0.06,0.48c0,0.17,0,0.33,0,0.48c0,0.79-0.22,1.45-0.67,1.99
			C426.62,152.04,425.98,152.32,425.16,152.32z M438.41,169.11c-0.41-0.34-0.74-0.8-0.98-1.4c-0.24-0.6-0.37-1.42-0.37-2.47v-22.12
			c0-0.82,0.09-1.54,0.28-2.16c0.19-0.62,0.52-1.15,1.01-1.6c-1.39-0.19-2.63-0.53-3.73-1.04c-1.1-0.5-1.98-1.23-2.61-2.16
			c-0.64-0.93-0.96-2.15-0.96-3.65c0-2.17,0.7-3.87,2.11-5.08c1.4-1.22,3.19-1.83,5.36-1.83c1.54,0,2.84,0.26,3.9,0.79
			c1.07,0.52,1.91,1.27,2.53,2.25c0.62,0.97,0.93,2.17,0.93,3.59c0,1.46-0.28,2.64-0.84,3.54s-1.22,1.61-1.97,2.13
			c-0.75,0.52-1.37,0.97-1.85,1.35c-0.49,0.41-0.9,0.85-1.24,1.32c-0.34,0.47-0.5,1.32-0.5,2.56v21.23c0,1.27,0.21,2.12,0.62,2.53
			c0.41,0.41,1.03,0.62,1.85,0.62v1.35L438.41,169.11z M439.59,138.17c1.12-0.67,2.07-1.46,2.84-2.36c0.77-0.9,1.15-2.1,1.15-3.59
			c0-1.61-0.47-2.85-1.4-3.73c-0.94-0.88-2.15-1.32-3.65-1.32c-1.46,0-2.69,0.43-3.68,1.29c-0.99,0.86-1.49,2.17-1.49,3.93
			c0,1.95,0.6,3.35,1.8,4.21C436.35,137.45,437.83,137.98,439.59,138.17z"/>
		<path class="st0" d="M477.04,130.3c-0.71,0-1.3-0.21-1.77-0.65c-0.47-0.43-0.76-0.98-0.87-1.66h-17.35
			c0.04-0.22,0.06-0.58,0.06-1.07c0-0.64-0.08-1.2-0.22-1.68c-0.15-0.49-0.39-0.9-0.73-1.24c0.15-0.11,0.35-0.2,0.59-0.25
			c0.24-0.06,0.5-0.08,0.76-0.08c0.75,0,1.35,0.22,1.8,0.67s0.69,1.09,0.73,1.91h14.38c0.11-0.64,0.39-1.17,0.84-1.6
			c0.45-0.43,1.05-0.65,1.8-0.65c0.3,0,0.54,0.03,0.73,0.08c0.19,0.06,0.36,0.14,0.51,0.25c-0.34,0.34-0.58,0.75-0.73,1.24
			c-0.15,0.49-0.22,1.01-0.22,1.57c0,0.52,0.07,1.03,0.22,1.52c0.15,0.49,0.39,0.92,0.73,1.29c-0.11,0.08-0.27,0.15-0.48,0.22
			C477.59,130.27,477.34,130.3,477.04,130.3z M461.26,152.76c-0.26,0-0.5-0.03-0.73-0.08c-0.22-0.06-0.43-0.14-0.62-0.25
			c0.34-0.34,0.59-0.77,0.76-1.29c0.17-0.52,0.25-1.07,0.25-1.63c0-0.49-0.05-0.91-0.14-1.26c-0.09-0.36-0.18-0.66-0.25-0.93h28.08
			c-0.08,0.26-0.15,0.57-0.22,0.93c-0.08,0.36-0.11,0.78-0.11,1.26c0,0.56,0.07,1.1,0.22,1.63c0.15,0.52,0.39,0.95,0.73,1.29
			c-0.15,0.11-0.34,0.2-0.56,0.25c-0.22,0.06-0.49,0.08-0.79,0.08c-0.79,0-1.41-0.27-1.88-0.81c-0.47-0.54-0.7-1.21-0.7-1.99
			c0-0.15,0-0.31,0-0.48c0-0.17,0.02-0.33,0.06-0.48h-21.56c0.04,0.15,0.06,0.31,0.06,0.48c0,0.17,0,0.33,0,0.48
			c0,0.79-0.22,1.45-0.67,1.99C462.72,152.49,462.09,152.76,461.26,152.76z M472.66,169.11c-0.45-0.3-0.8-0.75-1.04-1.35
			c-0.24-0.6-0.37-1.42-0.37-2.47c0-0.93,0.11-2.17,0.34-3.71c0.22-1.53,0.5-3.2,0.84-5s0.67-3.59,1.01-5.39s0.62-3.46,0.84-5
			c0.22-1.53,0.34-2.75,0.34-3.65c0-1.01-0.24-1.73-0.73-2.16c-0.49-0.43-1.33-0.65-2.53-0.65h-5.45v-13.48h2.42V138h4.38
			c1.65,0,2.78,0.38,3.4,1.15c0.62,0.77,0.93,1.69,0.93,2.78c0,0.79-0.08,1.79-0.25,3c-0.17,1.22-0.38,2.55-0.62,4.01
			s-0.51,2.97-0.81,4.52c-0.3,1.55-0.57,3.03-0.81,4.44c-0.24,1.4-0.45,2.68-0.62,3.82c-0.17,1.14-0.25,2.05-0.25,2.72
			c0,1.2,0.22,1.99,0.65,2.39c0.43,0.39,1.08,0.59,1.94,0.59v1.4L472.66,169.11z"/>
	</g>
</g>
<text transform="matrix(1 0 0 1 5.0547 485.437)" class="st0 st7 st2">项目</text>
</svg>
