<?xml version="1.0" encoding="utf-8"?>
<!-- Generator: Adobe Illustrator 27.3.1, SVG Export Plug-In . SVG Version: 6.00 Build 0)  -->
<svg version="1.1" id="Layer_1" xmlns="http://www.w3.org/2000/svg" xmlns:xlink="http://www.w3.org/1999/xlink" x="0px" y="0px"
	 viewBox="0 0 500 500" style="enable-background:new 0 0 500 500;" xml:space="preserve">
<style type="text/css">
	.st0{opacity:0.4;}
	.st1{fill:#FE6F5B;}
	.st2{fill:#FFFFFF;}
	.st3{fill-rule:evenodd;clip-rule:evenodd;fill:#FE6F5B;}
	.st4{fill:none;stroke:#FFFFFF;stroke-miterlimit:10;}
	.st5{fill:none;stroke:#FE6F5B;stroke-miterlimit:10;}
</style>
<g class="st0">
	<g>
		<g>
			<path class="st1" d="M142.53,216.63c-2.69,1.74-4.92,3-9.12,4.74c-7.1,2.95-13.51-17.96-25.82-9.48
				c8.51-3.68,13.76,13.19,20.85,14.76C134.96,228.1,142.53,216.64,142.53,216.63z"/>
			<path class="st1" d="M129.77,216.24c4.21,0.34,6.46-3.88,9.52-4c2.5-0.1,4.58,2.52,4.58,2.52s-0.89-4.75-4.71-6.23
				c-4.24-1.65-7.13,3.19-10.52,2.7c-3.24-0.47-9.27-10.51-9.27-10.51S120.31,215.48,129.77,216.24z"/>
			<path class="st1" d="M142.79,201.95c-0.66-3.05,1.21-5.63,3.36-5.63c4.85,0,9.43,7,9.43,7s-1.24-10.84-9.2-10.84
				C141.12,192.48,139.8,197.8,142.79,201.95z"/>
			<path class="st1" d="M146.7,207.09c0,0-2.31-3.38-3.18-4.28c1.69,8.29,1.92,27.23,0.45,27.23c-1.35,0-2.74-6.1-2.74-6.1
				s-0.19,13.53,3.65,13.53C148.88,237.47,149.16,219.75,146.7,207.09z"/>
			<path class="st1" d="M150.34,209.17c2.51,7.85,1.71,22.31-1.66,18.03c0,2.08,1.61,5.18,3.15,5.18c3.11,0,5.5-15.64,0.96-27.21
				L150.34,209.17z"/>
			<path class="st1" d="M155.64,225.28c0,2.85,1.76,4.69,3.05,4.69c3.99,0,4.39-17,0.34-23.73l-2.72,4.28
				C158.42,215.55,158.71,228.18,155.64,225.28z"/>
			<path class="st1" d="M162.33,194.91c-1.56,0-2.3,1.84-2.66,2.5c8.98-3.88,8.29,38.85,2.99,38.85c-1.21,0-2.39-3.14-1.83-6.05
				l-1.4,2.47c-0.88,5.8,1.57,9.73,3.54,9.73C172.16,242.42,171.72,194.91,162.33,194.91z"/>
			<path class="st1" d="M165.44,189.9c6.85,7.22,9.34,25.53,5.11,43.94C178.08,215.43,173.84,189.99,165.44,189.9z"/>
		</g>
		<g>
			<path class="st2" d="M475.41,467.13c-0.57-0.02-1.03-0.49-1.01-1.07c0.02-0.57,0.49-1.03,1.07-1.01
				c4.26,0.12,8.52,0.1,11.93-0.06c3.08-0.14,5.39-0.39,6.25-0.73c0.91-0.37,2.26-0.93,3.17-2.02c0.89-1.06,1.44-2.69,0.88-5.29
				c-0.49-2.27-1.18-3.8-2.24-4.82c-1.05-1.01-2.53-1.58-4.6-1.94c-1.51-0.26-4.15-0.62-6.78-0.95c-3.29-0.41-6.61-0.79-7.68-0.87
				c-0.57-0.04-1-0.54-0.96-1.11s0.54-1,1.11-0.96c1.04,0.08,4.4,0.46,7.79,0.89c2.71,0.34,5.41,0.71,6.87,0.96
				c2.48,0.43,4.31,1.16,5.69,2.49s2.25,3.19,2.83,5.89c0.72,3.35-0.07,5.56-1.33,7.06c-1.24,1.47-2.87,2.17-3.98,2.61
				c-1.08,0.44-3.64,0.73-6.93,0.88C484.05,467.24,479.72,467.25,475.41,467.13L475.41,467.13z"/>
			<path class="st2" d="M433.07,472.85c0.21-0.53,0.81-0.79,1.35-0.58c0.53,0.21,0.79,0.81,0.58,1.35
				c-0.03,0.07-10.39,25.44,13.02,24.26c2.89-0.14,14.72-2.43,22.98-5.92c2.6-1.1,4.82-2.31,6.24-3.59
				c1.19-1.07,1.76-2.16,1.39-3.22c-0.21-0.58-0.69-1.21-1.48-1.87c-3.88-3.22-6.94-6.16-6.95-6.17c-0.41-0.4-0.43-1.05-0.03-1.46
				s1.05-0.43,1.46-0.03c0.01,0.01,2.99,2.87,6.84,6.07c1.1,0.91,1.78,1.84,2.11,2.77c0.7,1.98-0.12,3.8-1.95,5.45
				c-1.6,1.44-4.02,2.77-6.83,3.95c-8.47,3.58-20.68,5.93-23.68,6.08C421.45,501.29,433.04,472.93,433.07,472.85L433.07,472.85z"/>
			<path class="st2" d="M432.91,458.14l-1.68,1.54c-0.05-0.13-0.09-0.25-0.12-0.38c-0.11-0.34-0.22-0.7-0.33-1.1
				c-0.17-0.58-0.4-1.43-0.6-2.46c-1-5.17-1.55-15.26,6.95-21.91c2.4-1.88,8.34-1.72,15.37,0.22c6.23,1.72,13.4,4.82,19.76,9.1
				c0.48,0.32,0.6,0.97,0.28,1.44c-0.32,0.48-0.97,0.6-1.44,0.28c-6.17-4.16-13.13-7.16-19.15-8.82
				c-6.43-1.78-11.67-2.06-13.54-0.58c-7.62,5.97-7.11,15.17-6.18,19.89c0.19,0.97,0.39,1.74,0.54,2.27L432.91,458.14L432.91,458.14
				z"/>
			<path class="st2" d="M471.36,443.02c0.03-0.01,0.06-0.02,0.09-0.02c0.01,0,1.86-0.36,0.33-7.75c-0.22-1.05-0.17-1.79,0.06-2.27
				c0.3-0.62,0.8-0.89,1.44-0.85c0.39,0.02,0.81,0.21,1.23,0.51c0.96,0.7,2.19,2.3,3.09,4.24c0.68,1.45,1.13,3.67,1.24,5.7
				c0.07,1.2,0.02,2.34-0.16,3.25c-0.23,1.15-0.7,2.02-1.48,2.38c-0.21,0.1-0.43,0.15-0.67,0.17c-4.02,0.23-4.72-1.73-5.11-3.1
				c-0.21,0.14-0.45,0.34-0.72,0.56c-0.86,0.69-1.98,1.58-3.68,2.28c-0.26,0.11-0.83,0.42-1.59,0.85
				c-3.21,1.79-9.55,5.32-13.87,4.63c-3.09-0.49-5.14-2.85-4.52-8.73l-0.17,0.06c-0.8,0.28-1.84,0.73-3.01,1.37
				c-4.67,2.57-11.19,8.16-11.35,18.1c-0.25,15.16,18.87,14.66,18.92,14.66c0.57-0.01,1.04,0.45,1.05,1.02
				c0.01,0.57-0.45,1.04-1.02,1.05c-0.06,0-21.31,0.56-21.03-16.76c0.18-10.94,7.31-17.08,12.42-19.88c1.27-0.7,2.43-1.2,3.33-1.51
				c1.01-0.36,1.8-0.49,2.15-0.43c0.52,0.08,0.84,0.37,0.93,0.86l0.01,0.37c-0.86,5.39,0.46,7.43,2.61,7.78
				c3.63,0.58,9.54-2.72,12.54-4.39c0.81-0.45,1.43-0.8,1.81-0.95c1.44-0.6,2.41-1.37,3.18-1.98
				C470.11,443.65,470.67,443.21,471.36,443.02L471.36,443.02z M473.81,434.84c1.13,5.48,0.3,8.03-0.59,9.21
				c0.05,0.16,0.1,0.33,0.15,0.52c0.21,0.73,0.53,1.87,2.99,1.75c0.09-0.09,0.19-0.41,0.29-0.88c0.15-0.75,0.18-1.71,0.13-2.74
				c-0.1-1.79-0.49-3.72-1.06-4.95c-0.59-1.27-1.3-2.33-1.92-2.98L473.81,434.84L473.81,434.84z"/>
			<path class="st2" d="M474.11,469.88c0.48,0.42,0.92,0.77,1.29,1.07c1.61,1.27,2.12,1.67,2.93,5.61c0.15,0.71,0.29,1.19,0.44,1.49
				c0.26-0.37,0.48-0.92,0.6-1.4c0.25-0.97,0.54-2.59,0.25-4.32c-0.29-1.68-1.15-3.5-3.21-4.97c-0.07-0.05-0.14-0.09-0.22-0.12
				c-0.36-0.15-0.81-0.11-1.24,0.03c-0.46,0.16-0.86,0.45-1.11,0.79c-0.06,0.08-0.1,0.16-0.14,0.25l-0.02,0.05
				c-0.09,0.21-0.18,0.45-0.16,0.65C473.55,469.23,473.69,469.51,474.11,469.88L474.11,469.88L474.11,469.88z M474.12,472.58
				c-0.36-0.28-0.77-0.61-1.32-1.1c-0.05-0.04-0.1-0.09-0.15-0.13c-0.82-0.76-1.13-1.49-1.19-2.16c-0.06-0.66,0.13-1.18,0.31-1.61
				c0.01-0.02,0.01-0.03,0.02-0.06c0.09-0.22,0.22-0.44,0.37-0.65c0.49-0.68,1.26-1.24,2.1-1.55c0.88-0.31,1.86-0.36,2.73,0.01
				c0.22,0.09,0.42,0.21,0.62,0.35c2.6,1.86,3.69,4.17,4.05,6.31c0.36,2.1,0.01,4.01-0.27,5.17c-0.21,0.84-0.68,1.88-1.25,2.5
				c-0.34,0.36-0.74,0.61-1.19,0.68c-0.53,0.08-1.05-0.08-1.51-0.57c-0.44-0.47-0.84-1.34-1.14-2.78
				C475.65,473.78,475.29,473.5,474.12,472.58L474.12,472.58z"/>
			<path class="st2" d="M473.21,469.77c0.57-0.09,1.1,0.3,1.18,0.87s-0.3,1.1-0.87,1.18c-0.14,0.02-0.27,0.03-0.42,0.05
				c-0.01,0.34-0.03,0.68-0.09,1.01c-0.31,2.22-1.43,4.23-3.09,5.74c-1.64,1.49-3.8,2.5-6.22,2.74c-0.86,0.09-1.75,0.07-2.65-0.06
				c-3.63-0.51-6.88-0.31-8.56-0.22c-0.46,0.03-0.8,0.05-1.07,0.05c-0.68-0.01-2.18-1.72-3.11-3.97c-0.42-1.02-0.77-2.16-0.94-3.29
				c-0.18-1.19-0.16-2.39,0.18-3.48c0.53-1.7,1.79-3.04,4.19-3.56c8.6-1.86,12.29-0.19,15.18,1.11c0.5,0.22,0.97,0.44,1.39,0.6
				c0.03,0.01,0.05,0.02,0.08,0.03c1.47,0.54-0.68-0.25,0.41,0.16C470.57,469.37,472.08,469.94,473.21,469.77L473.21,469.77z
				 M471.04,471.64c-0.92-0.22-1.9-0.59-2.94-0.98c-0.82-0.31,1.33,0.5-0.41-0.15c-0.03-0.01-0.06-0.02-0.09-0.03
				c-0.53-0.2-1.01-0.42-1.51-0.64c-2.62-1.18-5.96-2.68-13.89-0.97c-1.54,0.33-2.33,1.14-2.65,2.15c-0.23,0.76-0.24,1.64-0.1,2.55
				c0.15,0.97,0.45,1.95,0.8,2.82c0.62,1.53,1.15,2.69,1.2,2.69c0.15,0,0.49-0.02,0.94-0.05c1.75-0.1,5.13-0.3,8.97,0.23
				c0.75,0.1,1.48,0.12,2.18,0.05c1.95-0.19,3.69-1,5.02-2.21c1.31-1.19,2.19-2.77,2.43-4.5
				C471.01,472.28,471.04,471.96,471.04,471.64L471.04,471.64z"/>
			<path class="st2" d="M451.29,473.33c0.34,0.05,1.25-0.62,1.37-1.49s-0.59-1.62-0.93-1.67c-0.34-0.05-0.72,0.62-0.84,1.49
				C450.78,472.53,450.95,473.28,451.29,473.33L451.29,473.33L451.29,473.33z"/>
			<path class="st2" d="M451.34,472.99c0.07,0.01,0.27-0.11,0.48-0.31c0.23-0.22,0.45-0.54,0.5-0.89v-0.01
				c0.05-0.34-0.07-0.66-0.23-0.9c-0.15-0.22-0.31-0.36-0.4-0.38c-0.02,0-0.07,0.09-0.15,0.23c-0.13,0.23-0.24,0.58-0.3,0.97v0.01
				c-0.05,0.39-0.04,0.75,0.02,1.01C451.3,472.88,451.33,472.99,451.34,472.99L451.34,472.99L451.34,472.99z M452.29,473.18
				c-0.36,0.34-0.78,0.53-1.04,0.49h-0.01c-0.33-0.05-0.55-0.34-0.66-0.78c-0.08-0.34-0.1-0.78-0.03-1.26c0-0.01,0-0.01,0-0.02
				c0.07-0.48,0.21-0.91,0.38-1.21c0.22-0.4,0.53-0.62,0.85-0.58c0.25,0.03,0.62,0.29,0.88,0.68c0.25,0.36,0.42,0.85,0.35,1.39v0.01
				C452.93,472.41,452.63,472.86,452.29,473.18L452.29,473.18z"/>
			<path class="st2" d="M450.6,446.74c0.34-0.05,1.25,0.62,1.37,1.49c0.12,0.88-0.59,1.62-0.93,1.67c-0.34,0.05-0.72-0.62-0.84-1.5
				C450.08,447.53,450.26,446.79,450.6,446.74L450.6,446.74L450.6,446.74z"/>
			<path class="st2" d="M450.57,446.57L450.57,446.57c0.22-0.03,0.59,0.14,0.91,0.45c0.31,0.29,0.59,0.72,0.65,1.2v0.01
				c0.06,0.48-0.1,0.93-0.32,1.26c-0.23,0.34-0.54,0.57-0.76,0.6l0,0c-0.25,0.03-0.49-0.15-0.68-0.49
				c-0.16-0.29-0.29-0.69-0.36-1.15c-0.06-0.46-0.05-0.89,0.03-1.21C450.15,446.85,450.32,446.6,450.57,446.57L450.57,446.57z
				 M451.24,447.27c-0.25-0.23-0.5-0.37-0.62-0.36c-0.09,0.01-0.17,0.16-0.23,0.39l0,0c-0.07,0.28-0.08,0.66-0.02,1.08
				c0.06,0.41,0.18,0.78,0.31,1.03c0.11,0.21,0.23,0.33,0.33,0.31c0.13-0.02,0.34-0.19,0.52-0.45c0.18-0.27,0.31-0.64,0.26-1.03
				v-0.01C451.74,447.86,451.5,447.51,451.24,447.27L451.24,447.27z"/>
			<path class="st2" d="M448.3,444.65c-0.57,0.03-1.06-0.41-1.09-0.99c-0.03-0.57,0.41-1.06,0.99-1.09c1.6-0.09,2.87,0.11,4.21,0.31
				c1,0.15,2.04,0.31,3.2,0.35c1.11,0.03,2.33-0.11,3.59-0.26c3.32-0.4,6.87-0.82,10.54,1.64c0.48,0.32,0.6,0.96,0.29,1.44
				c-0.32,0.48-0.96,0.6-1.44,0.29c-3.03-2.03-6.18-1.65-9.14-1.29c-1.32,0.16-2.6,0.31-3.89,0.27c-1.34-0.04-2.41-0.21-3.45-0.37
				C450.85,444.75,449.67,444.58,448.3,444.65L448.3,444.65z"/>
		</g>
		<g>
			<path class="st1" d="M492.22,289.98v4.32c-7.29,0.15-14.17,0.56-20.63,1.26l0,0l20.63,6.61v3.29L471.59,312l0,0
				c6.19,0.48,13.07,0.78,20.63,0.91v3.98c-9.2-0.26-17.83-0.89-25.89-1.91v-5.38l19.02-6.23l0,0l-19.02-6.27v-5.12
				C475.76,290.86,484.39,290.2,492.22,289.98L492.22,289.98z"/>
			<path class="st1" d="M473.12,271.24c9.55,1.76,16.51,4.08,20.87,6.96c3.35,2.24,5.02,4.7,5.01,7.38
				c-0.04,0.91-0.26,1.8-0.64,2.63h-2.31c0.08-0.6,0.12-1.21,0.11-1.82c0.05-1.1-0.32-2.18-1.04-3.02c-0.7-0.85-1.73-1.35-2.83-1.38
				c-1.51,0.18-2.99,0.54-4.41,1.07l-14.76,4.74v-4.24l11.04-3.41c2.51-0.77,4.26-1.08,5.25-0.96c-5.26-1.93-10.73-3.24-16.29-3.9
				L473.12,271.24z"/>
			<path class="st1" d="M485.04,252.32c2.07-0.05,4.06,0.83,5.41,2.41c1.47,1.82,2.22,4.12,2.1,6.46c-0.03,2.63-0.85,5.19-2.37,7.34
				l-2.22-1.11c0.93-1.7,1.46-3.6,1.53-5.54c0.07-1.3-0.29-2.58-1.03-3.64c-0.68-0.9-1.75-1.42-2.88-1.4
				c-1.53,0-2.84,1.07-3.95,3.03c-1,1.82-3.08,5.47-3.08,5.47c-1.16,1.89-3.25,3.02-5.47,2.95c-1.94,0.07-3.81-0.74-5.08-2.2
				c-1.34-1.58-2.03-3.61-1.94-5.68c-0.02-2.32,0.65-4.59,1.92-6.53l2.15,0.94c-0.69,1.56-1.06,3.25-1.08,4.97
				c-0.09,1.1,0.24,2.19,0.91,3.06c0.61,0.73,1.51,1.15,2.46,1.16c1.53,0,2.86-1.09,3.98-3.11c0.99-1.82,3.12-5.54,3.12-5.54
				c1.43-2.02,2.96-3.03,5.47-3.03h0.05L485.04,252.32L485.04,252.32z"/>
			<path class="st3" d="M487.04,244.6c-1.69,1.04-4.39,1.57-8.12,1.57c-6.52,0-9.78-1.98-9.78-5.93c-0.13-1.83,0.77-3.59,2.33-4.56
				c1.68-1.05,4.37-1.57,8.05-1.57c6.57,0,9.86,1.97,9.85,5.92C489.5,241.87,488.6,243.62,487.04,244.6L487.04,244.6z
				 M492.84,229.23l-2.34,4.76c-0.35-0.43-0.74-0.83-1.16-1.18c-2.38-2.02-5.89-3.02-10.54-3.02c-8.56,0-12.85,3.34-12.85,10.02
				c-0.16,2.94,1.05,5.78,3.28,7.71c2.38,2.01,5.88,3.02,10.51,3.02c4.62,0,7.96-0.89,10.02-2.68c1.91-1.62,2.88-4.08,2.88-7.37
				c0.01-1.14-0.14-2.28-0.46-3.38l3.6-6.18l-2.91-1.69h-0.03V229.23z"/>
			<polygon class="st1" points="492.22,213.74 492.22,226.01 466.34,226.01 466.34,221.88 489.03,221.88 489.03,213.74 			"/>
			<path class="st1" d="M492.21,210.8v-0.68h-2.63v-0.91h-0.54v2.51h0.54v-0.91L492.21,210.8L492.21,210.8z M492.21,205.58v-0.65
				h-3.17v0.97l2.17,0.79l-2.17,0.86v0.91h3.17v-0.61h-2.41l0,0l2.41-0.91v-0.46l-2.41-0.91L492.21,205.58L492.21,205.58z"/>
			<path class="st3" d="M457.67,208.55c-0.13,2.06,0.18,4.12,0.91,6.05c0.19,0.46,0.19,1.21,0.78,1.28c0.25-0.25,0.66-0.27,1-0.5
				c0.72-0.42,1.37-0.97,1.9-1.61c0.5-0.66,1-1.31,1.44-2c0.75-1.21,1.18-2.59,1.94-3.76c0.44-0.69,0.99-1.38,1.47-2.07
				c0.25-0.34,0.66-0.56,0.81-0.99h-0.09c-0.28,0.22-0.69,0.28-1,0.5l-0.91,0.91c-1.21,0.92-2.28,2.01-3.16,3.24
				c-0.69,1-1.63,3.19-2.73,3.59l-0.06,0.06c-0.11-0.73-0.28-1.45-0.51-2.15c-0.27-1.07-0.21-2.03-0.49-3.12
				c-0.13-0.5-0.28-1-0.44-1.5h-0.28c-0.56,0.56-1.31,0.97-1.82,1.56c-1.41,1.62-2.69,3.34-3.85,5.15
				c-0.62,0.97-1.03,2.21-1.56,3.24c-0.19,0.37-0.28,0.99-0.6,1.21c-0.75,0.51-1.56,0.94-2.41,1.28c-1.71,0.91-3.64,1.82-5.47,2.55
				c-1.24,0.45-2.46,0.98-3.64,1.58c-4.93,2.9-8.97,7.09-11.7,12.11c-0.61,1.26-1.04,2.61-1.28,3.99c0,0.77-0.1,1.56-0.13,2.33
				c-0.33,0.51-0.69,0.99-1.09,1.44c-1.13,1.82-3.56,6.38-0.35,7.67c2.04,0.84,4.04-1.25,5.07-1.97c0.73-0.6,1.51-1.13,2.34-1.59
				c0.54-0.22,1.1-0.28,1.66-0.5c1.43-0.46,2.83-1,4.19-1.62c0.67-0.34,1.32-0.72,1.94-1.16c0.35-0.25,0.5-0.68,1.07-0.77
				c0.74,0.34,1.53,0.58,2.34,0.71c3.54,1.13,7.91,0.69,10.51-0.91c0.78-0.49,2.51-1.69,1.82-3.27c-0.56-1.4-2.34-1.09-3.9-1.5
				c-0.38-0.09-0.63,0-0.91-0.21h0.05c0.91-0.44,1.72-0.91,2.6-1.28c1.63-1.11,3.06-2.47,4.25-4.05c0.56-0.75,1.53-1.34,1.88-2.28
				h-0.05v0.06c-0.24,0.21-0.45,0.45-0.63,0.72c-0.58,0.59-1.21,1.13-1.88,1.62c-1.8,1.32-3.7,2.49-5.69,3.49
				c-0.97,0.5-2.04,0.91-3.01,1.34c-0.37,0.19-0.91,0.19-1.12,0.5c0.64,0.59,1.34,1.1,2.1,1.52c1.52,0.52,3.11,0.83,4.72,0.91
				c0,0.13,0,0.06,0.06,0.13c-0.26,0.99-1.28,1.34-2.16,1.71c-2.68,0.97-5.6,1.07-8.35,0.28c-0.66-0.22-2.73-1.16-3.34-0.77
				c-0.6,0.18-0.91,0.81-1.41,1.15c-0.63,0.44-1.3,0.81-2,1.12c-1.76,0.75-3.69,1.13-5.47,1.93c-0.84,0.46-1.65,0.98-2.41,1.57
				c-0.75,0.65-1.57,1.22-2.43,1.71c-0.35,0.15-0.91,0.37-1.28,0.13c-0.22-0.04-0.39-0.22-0.41-0.44c-0.35-0.41,0.09-1.56,0.28-1.97
				c0.42-1.11,0.96-2.17,1.62-3.15c0.31-0.44,0.91-0.91,1.06-1.46v-0.66c0.22-1,0.06-2.12,0.35-3.06c0.53-1.58,1.25-3.09,2.16-4.49
				c2.64-4.13,6.33-7.49,10.7-9.72c0.71-0.38,1.38-0.54,2.12-0.91c1.53-0.66,3.1-1.47,4.56-2.12c1.48-0.58,2.88-1.32,4.19-2.21
				c0.66-0.47,1-2.34,1.35-3.18c0.26-0.74,0.57-1.46,0.91-2.16c0.66-1.06,1.4-2.11,2.12-3.12c0.38-0.49,1.16-2.06,1.82-2.15
				L457.67,208.55z"/>
			<path class="st3" d="M430.49,240.36c0,0.43,0.05,0.87,0.16,1.28h0.06v-0.06c0.45-0.3,0.87-0.64,1.28-1c0.5-0.25,1-0.46,1.5-0.71
				l-0.06-0.06c-0.37-0.47-0.96-0.72-1.56-0.66c-0.22,0.18-0.44,0.22-0.66,0.37S430.75,240.12,430.49,240.36L430.49,240.36z"/>
		</g>
	</g>
	<g>
		<g>
			<path class="st4" d="M442.1,27.12l-10.4,30.63c-0.1,0.31-0.1,0.64,0,0.94l10.59,30.43c0.22,0.65,0.87,1.05,1.55,0.96l39.43-4.81
				c0.47-0.06,0.88-0.33,1.1-0.75l13.94-25.65c0.12-0.22,0.18-0.46,0.18-0.69c0-0.24-0.06-0.48-0.18-0.7l-14.13-25.79
				c-0.23-0.41-0.64-0.69-1.1-0.74l-39.43-4.81C442.97,26.06,442.32,26.47,442.1,27.12z M479.59,45.67l-8.71,4.04v16.81l8.71,4.04
				v6.45l-40.7-18.9l40.7-18.9V45.67z"/>
			<polygon class="st4" points="465.06,52.42 452.7,58.12 465.06,63.82 			"/>
		</g>
		<g>
			<path class="st4" d="M24.54,403.98L24.54,403.98l-13.76,24.48c-1.04,1.86-1.04,4.16,0,6.02l13.76,24.48
				c1.05,1.88,3.02,3.04,5.14,3.04H57.2c2.12,0,4.08-1.16,5.14-3.04l13.76-24.48c0.52-0.93,0.78-1.97,0.78-3.01
				s-0.26-2.08-0.78-3.01l-13.76-24.48c-1.06-1.87-3.02-3.04-5.14-3.04H29.68C27.56,400.94,25.59,402.11,24.54,403.98z
				 M60.88,431.47c0,9.62-7.83,17.45-17.45,17.45s-17.45-7.83-17.45-17.45c0-5.5,2.55-10.58,6.89-13.87l3.69,6.37
				c-2.09,1.92-3.31,4.64-3.31,7.5c0,5.61,4.56,10.18,10.18,10.18s10.18-4.56,10.18-10.18c0-2.87-1.22-5.59-3.31-7.5l3.69-6.37
				C58.33,420.89,60.88,425.98,60.88,431.47z M44.89,414.03v2.91h2.91v2.91h-2.91v2.91h-2.91v-2.91h-2.91v-2.91h2.91v-2.91H44.89z
				 M44.89,403.85v2.91h2.91v2.91h-2.91v2.91h-2.91v-2.91h-2.91v-2.91h2.91v-2.91H44.89z"/>
		</g>
		<g>
			<g>
				<path class="st4" d="M159.01,321.55L159.01,321.55l-13.76,24.48c-1.04,1.86-1.04,4.16,0,6.02l13.76,24.48
					c1.05,1.87,3.02,3.04,5.14,3.04h27.52c2.12,0,4.08-1.16,5.14-3.04l13.76-24.48c0.52-0.93,0.78-1.97,0.78-3.01
					s-0.26-2.08-0.78-3.01l-13.76-24.48c-1.06-1.87-3.02-3.04-5.14-3.04h-27.51C162.03,318.51,160.06,319.67,159.01,321.55z
					 M195.35,349.04c0,9.62-7.83,17.45-17.45,17.45s-17.45-7.83-17.45-17.45c0-5.5,2.55-10.58,6.89-13.87l3.69,6.37
					c-2.09,1.92-3.31,4.64-3.31,7.5c0,5.61,4.56,10.18,10.18,10.18c5.61,0,10.18-4.56,10.18-10.18c0-2.87-1.22-5.59-3.31-7.5
					l3.69-6.37C192.8,338.46,195.35,343.54,195.35,349.04z"/>
			</g>
		</g>
		<g>
			<path class="st4" d="M284.91,68.85V57.9h50.18c1.06,5.61,1.48,9.74,1.48,14.2c-0.01,13.37-5.99,20.33-17.46,20.33
				c-11.06,0-18.23-7.38-18.23-18.83c0-1.78,0.14-3.13,0.56-4.76h-16.53V68.85z M302.22,40h25.13c8.65,0,12.81,0.65,16.4,2.55
				c3.45,1.78,5.62,4.11,8.03,8.95l-4.79,10.16c-2.25-4.83-4.23-7.17-7.26-8.67c-3.1-1.56-6.69-2.06-16.12-2.06h-21.38L302.22,40
				L302.22,40L302.22,40z M284.91,52.04V41.09h11.13v10.95H284.91z M310.48,68.47c-0.42,1.28-0.56,2.34-0.56,3.69
				c0,5.54,3.38,8.74,9.3,8.74c5.76,0,8.95-3.06,8.95-8.67c0-1.21-0.07-2.2-0.28-3.76H310.48L310.48,68.47z"/>
		</g>
		<path class="st4" d="M76.59,122.83l59.83-5.28l7.04-24.64l-7.04-24.64L76.59,63V122.83z M104.66,77.69l20.24,1.23l4.58,13.9
			l-4.58,13.9l-9.68,0.53v-7.04l4.4-0.18l2.46-7.21l-2.46-7.21l-7.92-0.53v15.49l-7.04,0.35V84.73l-7.04-0.53v24.28l-7.04,0.53
			v-32.2L104.66,77.69z"/>
		<g>
			<path class="st4" d="M336.17,165.83v1.83c0,2.27,1.06,4.4,2.86,5.78l24.54,18.77l-24.54,18.77c-1.8,1.37-2.86,3.51-2.86,5.78
				v1.83l30.94-23.66l31.61,24.17v-1.83c0-2.27-1.06-4.4-2.86-5.78l-25.2-19.27l25.2-19.27c1.8-1.38,2.86-3.51,2.86-5.78v-1.83
				l-31.61,24.17L336.17,165.83z"/>
			<path class="st4" d="M386.3,227.18c8.37,5.51,12.66,16.35,8.88,26.72c-3.33,9.12-12.4,14.88-22.11,14.88h-2.39V242.9l0,0v-23.73
				h-8.92c-14.03,0-26.32,10.39-27.63,24.36c-1.51,16.03,11.12,29.56,26.84,29.56h12.02c11.59,0,22.36-6.93,26.28-17.84
				c5.13-14.24-2.52-29.22-15.65-34.29l0,0v1.38C383.62,224.32,384.66,226.1,386.3,227.18z M360.97,268.79
				c-12.49,0-22.65-10.16-22.65-22.65c0-12.49,10.16-22.65,22.65-22.65h5.39v45.3H360.97z"/>
		</g>
		<path class="st4" d="M1.75,177.08c-0.3,0.28-0.47,0.66-0.47,1.07v56.8c0,0.41,0.17,0.8,0.47,1.07c0.3,0.28,0.71,0.41,1.11,0.38
			l57.31-5.12c0.6-0.05,1.1-0.47,1.27-1.05l6.65-23.27c0.04-0.13,0.06-0.26,0.06-0.4s-0.02-0.27-0.06-0.4l-6.65-23.29
			c-0.17-0.58-0.67-1-1.27-1.05l-57.31-5.11C2.45,176.66,2.05,176.8,1.75,177.08z M21.51,189.33v27.35l7.4-0.65v-26.04l21.86,1.95
			l4.42,14.62l-0.04,0.14l-4.38,14.45l-8.91,0.79v-7.08l3.46-0.31l1.69-8.08l-1.69-7.93l-9.35-0.84v24.77l-21.52,1.92v-35.7
			L21.51,189.33z"/>
		<path class="st5" d="M193.49,105.56v58.38c0,2.34,1.9,4.25,4.25,4.25h58.38c2.34,0,4.25-1.9,4.25-4.25v-58.38
			c0-2.34-1.9-4.25-4.24-4.25h-58.38C195.39,101.32,193.49,103.22,193.49,105.56z M244.73,131.57c6.37,0,9.26,3.73,9.26,9.18
			c0,4.92-3.3,8.48-6.37,9.93l-3.03-5c1.71-0.97,3.03-2.44,3.03-4.55c0-2.02-0.79-3.18-3.86-3.18h-20.02v-6.37L244.73,131.57
			L244.73,131.57z M253.99,117.75c0,5.64-2.85,8.85-6.37,10.63l-3.18-4.78c2.13-1.3,4.16-2.72,4.16-5.71c0-2.52-1.26-3.84-3-3.84
			c-2.08,0-2.82,1.37-4.03,4.14l-0.65,1.52c-1.87,4.38-4.21,7.3-9.15,7.3c-4.56,0-8.02-3.47-8.02-8.9c0-3.86,1.34-6.64,4.86-8.64
			l3.04,4.73c-1.87,1.04-2.6,2.17-2.6,3.91c0,1.78,1.13,2.91,2.6,2.91c1.82,0,2.56-1.13,3.69-3.74l0.65-1.52
			c2.21-5.16,4.47-8.08,9.54-8.08C250.99,107.69,253.99,111.98,253.99,117.75z"/>
		<g>
			<path class="st4" d="M243.82,250c0,3.41,2.77,6.18,6.18,6.18s6.18-2.77,6.18-6.18s-2.77-6.18-6.18-6.18S243.82,246.59,243.82,250
				z"/>
			<g>
				<path class="st4" d="M236.87,250c0-19.34,7.78-31.68,13.13-31.68c2.72,0,5.81,2.94,8.27,7.87c3.09,6.18,4.86,14.86,4.86,23.8
					c0,19.34-7.78,31.68-13.13,31.68c-2.72,0-5.81-2.94-8.27-7.87C238.64,267.63,236.87,258.95,236.87,250 M231.46,250
					c0,20.48,8.3,37.08,18.54,37.08s18.54-16.6,18.54-37.08s-8.3-37.08-18.54-37.08C239.76,212.92,231.46,229.52,231.46,250
					L231.46,250z"/>
			</g>
			<g>
				<path class="st4" d="M221.97,263.35c0-5.98,7.52-16.68,21.46-24.73c7.75-4.47,16.15-7.28,23.04-7.69
					c5.5-0.33,9.6,0.88,10.96,3.23c0.4,0.7,0.6,1.51,0.6,2.48c0,5.98-7.52,16.68-21.46,24.73c-7.75,4.47-16.15,7.28-23.04,7.69
					c-5.5,0.33-9.6-0.88-10.96-3.23C222.17,265.14,221.97,264.33,221.97,263.35 M216.57,263.35c0,1.89,0.43,3.64,1.32,5.19
					c5.12,8.87,23.65,7.76,41.39-2.48c14.64-8.45,24.16-20.48,24.16-29.41c0-1.89-0.43-3.64-1.32-5.19
					c-5.12-8.87-23.65-7.76-41.39,2.48C226.09,242.39,216.57,254.43,216.57,263.35L216.57,263.35z"/>
			</g>
			<g>
				<path class="st4" d="M221.97,236.65c0-0.98,0.19-1.79,0.6-2.48c1.36-2.35,5.45-3.56,10.96-3.23c6.89,0.41,15.29,3.22,23.04,7.69
					c13.94,8.05,21.46,18.75,21.46,24.73c0,0.98-0.19,1.79-0.6,2.48c-1.36,2.35-5.45,3.56-10.96,3.23
					c-6.89-0.41-15.29-3.22-23.04-7.69C229.49,253.33,221.97,242.63,221.97,236.65 M216.57,236.65c0,8.93,9.52,20.96,24.16,29.41
					c17.74,10.24,36.27,11.35,41.39,2.48c0.89-1.55,1.32-3.3,1.32-5.19c0-8.93-9.52-20.96-24.16-29.41
					c-17.74-10.24-36.27-11.35-41.39-2.48C216.99,233.01,216.57,234.76,216.57,236.65L216.57,236.65z"/>
			</g>
		</g>
		<g>
			<polygon class="st5" points="60.13,43.82 66.87,32.02 0.11,32.02 6.85,43.82 			"/>
			<polygon class="st5" points="14.33,32.02 30.87,60.67 16.55,60.67 0,32.02 			"/>
			<polygon class="st5" points="60.13,16.85 66.87,28.65 0.11,28.65 6.85,16.85 			"/>
			<polygon class="st5" points="14.33,28.65 30.87,0 16.55,0 0,28.65 			"/>
			<polygon class="st5" points="26.63,21.91 39.49,21.91 46.3,10.11 33.44,10.11 			"/>
		</g>
		<g>
			<path class="st1" d="M146.35,467.29c0,12.65,6.54,15.26,10.32,15.26h7.12v-14.54h1.45v21.67c0,4.8,3.78,10.32,14.54,10.32
				s14.54-5.52,14.54-10.32v-8.58h-8.72c-3.2,0-5.81-2.62-5.81-5.81v-17.44c0-2.47-1.89-4.36-4.36-4.36h-18.75
				C151.59,453.48,146.35,458.28,146.35,467.29z M159.44,473.83c0,1.6-1.31,2.91-2.91,2.91s-2.91-1.31-2.91-2.91
				s1.31-2.91,2.91-2.91C158.13,470.93,159.44,472.23,159.44,473.83z"/>
			<path class="st1" d="M213.22,465.84c0-12.65-6.54-15.26-10.32-15.26h-7.12v14.53h-1.45v-21.66c0-4.8-3.78-10.32-14.54-10.32
				s-14.54,5.52-14.54,10.32v8.58h10.18c3.2,0,5.81,2.62,5.81,5.81v17.45c0,2.47,1.89,4.36,4.36,4.36h17.3
				C207.99,479.65,213.22,474.85,213.22,465.84z M200.14,459.3c0-1.6,1.31-2.91,2.91-2.91s2.91,1.31,2.91,2.91s-1.31,2.91-2.91,2.91
				S200.14,460.9,200.14,459.3z"/>
		</g>
		<path class="st4" d="M370.13,342.48v31.91c0,9.64,7.84,17.48,17.48,17.48h31.91c9.64,0,17.48-7.84,17.48-17.48v-31.91
			c0-9.64-7.84-17.48-17.48-17.48h-31.91C377.97,325,370.13,332.84,370.13,342.48z M424.84,336.22c0,0-4.27,2.51-4.27,6.71
			c0,4.05,4.27,7.15,4.27,15.31c0,15.16-11.24,23.75-14.74,25.98c-0.28,0.17-0.58-0.15-0.4-0.43c4.05-6.45,6.03-12.68,6.03-17
			c0-6.32-3.04-9.88-3.04-9.88c-3.43,5.82-19.38,19.76-23.83,22.73c-0.31,0.21-0.65-0.16-0.41-0.45
			c10.16-12.08,13.99-18.96,13.99-18.96c-2.15,2.56-12.16,10.17-16.62,13.33c-0.3,0.21-0.65-0.18-0.4-0.45
			c8.05-8.66,19.67-23.8,19.67-23.8c-2.68-0.95-5.9-1.56-8.36-1.52c-6.49,0.1-12.96,4.29-15.49,6.02c-0.29,0.2-0.61-0.16-0.4-0.44
			c8.1-11.28,18.22-14.7,24.06-14.7c4.19,0,6.84,1.52,6.84,1.52S418.75,333.77,424.84,336.22z"/>
		<g transform="matrix(2.21262 0 0 2.21262 -39.453867 -1.770085)">
			<path class="st4" d="M39.91,133.38l2.19,2.19c3.66-3.66,9.61-3.66,13.27,0s3.66,9.61,0,13.27s-9.61,3.66-13.27,0l-5.85-5.85
				l-0.84-0.73h-4.38l8.88,8.88c4.83,4.88,12.69,4.92,17.57,0.09c0.03-0.03,0.06-0.06,0.09-0.09c4.88-4.83,4.92-12.69,0.09-17.57
				c-0.03-0.03-0.06-0.06-0.09-0.09C52.66,128.47,44.72,128.47,39.91,133.38z"/>
			<circle class="st4" cx="37.61" cy="137.77" r="1.67"/>
		</g>
		<g>
			<path class="st4" d="M331.26,350.58l-3.41,1.82c-0.63,0.41-1.19,0.85-1.71,1.37c-1.52,1.52-3.11,2.97-4.82,4.26
				c-4.04,3.08-8.53,5.15-13.38,6.64c-2.97,0.89-6.01,1.37-9.08,1.41c-9.2,0.15-17.09-3-23.65-9.36c-1.04-1.04-2-2.15-2.85-3.34
				c0-0.63,0.48-0.93,0.93-1.19c0.81-0.48,1.74-0.78,2.67-0.93c1.11-0.22,2.23-0.37,3.37-0.3h0.52
				C279.95,350.92,331,350.36,331.26,350.58L331.26,350.58L331.26,350.58z"/>
			<path class="st4" d="M331.37,350.58c0.15-0.07,0.04-0.15-0.04-0.22c-0.74,0.04-1.41-0.22-2.04-0.63
				c-0.63-0.45-1.11-1.04-1.63-1.63c-2.85-3.3-6.3-5.89-10.16-7.97c-5.19-2.77-10.75-4.19-16.61-4.59
				c-2.11-0.18-9.57,0.67-11.72,1.33c-5.71,1.82-10.49,5.08-14.65,9.31c-1,1.04-1.93,2.15-2.82,3.3c0,0.33,0.3,0.37,0.52,0.45
				c0.47,0.15,0.96,0.26,1.45,0.33l5.56,0.74L331.37,350.58L331.37,350.58z"/>
			<path class="st4" d="M270.09,352.4c0.85,0.07,1.56,0.48,2.26,0.93c0.18-0.45,0.55-0.78,0.96-1.04c0.37-0.22,0.81-0.41,1.22-0.55
				c1.56-0.52,3.19-0.63,4.78-0.78h0.96c-0.15-0.18-1.41-0.22-1.6-0.22c-1.68-0.1-3.36-0.33-5.01-0.67
				c-0.67-0.11-1.33-0.18-1.93-0.6c-0.07,0-0.15,0-0.26,0.04c-1.97,0.67-3.97,0.85-6.01,0.96h-0.74c-0.89,0-0.7-0.04-1,0.7
				c-0.11,0.3-0.15,0.63-0.37,0.93c0,0.22,0.18,0.26,0.33,0.26l1.22-0.11h3.41C268.94,352.21,269.53,352.32,270.09,352.4
				L270.09,352.4L270.09,352.4z"/>
		</g>
		<path class="st4" d="M348.79,444.77c0,11.87-5.42,14.36-10.02,14.36c-0.43,0-0.78-0.35-0.78-0.78l0,0v-3.51
			c0-0.39,0.28-0.71,0.66-0.77c3.57-0.53,5.37-2.1,5.37-9.29c0-5.72-1.31-8.15-4.32-8.15c-1.75,0-3.01,0.69-3.91,9.57
			c-0.74,7.43-2.37,12.05-8.32,12.05c-5.47,0-8.73-4.62-8.73-12.35c0-8.69,3.01-12.99,9.5-13.53c0.22-0.02,0.44,0.06,0.6,0.21
			c0.16,0.16,0.26,0.38,0.25,0.6v3.46c0,0.36-0.25,0.68-0.6,0.76c-3.75,0.85-4.96,2.9-4.96,8.48c-0.01,6.24,2.16,6.97,3.79,6.97
			c1.98,0,2.55-0.86,3.67-9.28c1.12-8.42,2.68-12.3,8.53-12.3s9.3,4.93,9.3,13.53L348.79,444.77z M370.36,453.15
			c0,1-0.26,1.98-0.76,2.84l-5.36,9.04c-0.76,1.36-1.02,0.69-1.21,0.25c-0.45-1.44-1.08-2.81-1.87-4.1
			c-0.1-0.22-0.08-0.47,0.05-0.67l4.13-6.96c0.14-0.26,0.14-0.58,0-0.84l-15.67-27.11c-0.15-0.26-0.43-0.42-0.74-0.42h-31.27
			c-0.31,0-0.59,0.16-0.75,0.42l-15.67,27.11c-0.15,0.26-0.15,0.58,0,0.84l15.67,27.11c0.15,0.26,0.44,0.43,0.74,0.43h31.33
			c0.3,0,0.58-0.16,0.73-0.42l4.29-7.43c1.99-4.02-0.39-6.52-2.77-6.52h-30.9c-0.43,0-0.78-0.34-0.78-0.77c0-0.01,0-0.01,0-0.02
			v-3.43c0-0.43,0.34-0.78,0.77-0.78h0.01h30.92c5.38,0,8.44,2.93,8.44,8.03c0,1.57,0,2.81-1.7,6.25l-4.07,7.15
			c-1.03,1.76-2.91,2.84-4.95,2.84h-31.33c-2.04,0-3.92-1.08-4.95-2.84L297.02,456c-0.97-1.78-0.97-3.93,0-5.71l15.67-27.11
			c1.03-1.78,2.93-2.87,4.98-2.86H349c2.04,0,3.92,1.09,4.95,2.84l15.67,27.11c0.5,0.87,0.76,1.85,0.76,2.86l0,0L370.36,453.15z"/>
	</g>
</g>
</svg>
